<svg width="30" height="24" viewBox="0 0 30 24" fill="none" xmlns="http://www.w3.org/2000/svg">
<path d="M18.83 14.38C18.8024 15.0722 19.0342 15.7498 19.48 16.28C19.7095 16.4871 19.9782 16.646 20.2702 16.7474C20.5622 16.8487 20.8716 16.8904 21.18 16.87C21.6719 16.8838 22.1554 16.7402 22.56 16.46C22.8838 16.2537 23.1328 15.9487 23.27 15.59H25.58C25.3239 16.6076 24.7187 17.503 23.87 18.12C23.038 18.6407 22.0712 18.905 21.09 18.88C20.4062 18.8814 19.728 18.756 19.09 18.51C18.5076 18.2916 17.979 17.9506 17.54 17.51C17.1 17.0398 16.7599 16.4853 16.54 15.88C16.0752 14.5426 16.0752 13.0875 16.54 11.75C16.7602 11.1419 17.1002 10.5842 17.54 10.11C17.9743 9.63673 18.5021 9.25875 19.09 9.00003C19.7209 8.72673 20.4025 8.59039 21.09 8.60003C21.8186 8.55949 22.5462 8.69676 23.21 9.00003C23.8033 9.31227 24.3166 9.75713 24.71 10.3C25.1059 10.8609 25.391 11.4922 25.55 12.16C25.7239 12.8728 25.7846 13.6084 25.73 14.34H18.83V14.38ZM22.5 11.14C22.3025 10.9489 22.0666 10.8019 21.808 10.7088C21.5494 10.6157 21.274 10.5786 21 10.6C20.6542 10.5959 20.3121 10.6712 20 10.82C19.7437 10.9505 19.5186 11.1347 19.34 11.36C19.1782 11.5642 19.0591 11.7989 18.99 12.05C18.9294 12.2624 18.8892 12.48 18.87 12.7H23.16C23.1096 12.1235 22.8786 11.5776 22.5 11.14ZM18.29 6.00003H23.65V7.35003H18.29V6.00003ZM13.89 17.7C13.4358 18.0273 12.9233 18.2649 12.38 18.4C11.816 18.5515 11.234 18.6255 10.65 18.62H4.23999V5.12003H10.48C11.0612 5.11121 11.6416 5.16824 12.21 5.29003C12.686 5.38683 13.1381 5.57718 13.54 5.85003C13.9078 6.1039 14.204 6.44831 14.4 6.85003C14.6134 7.34871 14.7157 7.88784 14.7 8.43003C14.7202 9.02995 14.5599 9.62214 14.24 10.13C13.8982 10.6173 13.432 11.0041 12.89 11.25C13.6276 11.4393 14.2732 11.8863 14.71 12.51C15.1217 13.157 15.3274 13.9137 15.3 14.68C15.3151 15.2929 15.1812 15.9003 14.91 16.45C14.6808 16.946 14.33 17.376 13.89 17.7ZM11.72 8.19003C11.6141 7.99638 11.4589 7.83422 11.27 7.72003C11.0731 7.60159 10.8562 7.52025 10.63 7.48003C10.3781 7.44582 10.1242 7.42911 9.86999 7.43003H7.15999V10.59H10.16C10.6176 10.6137 11.0695 10.4796 11.44 10.21C11.6046 10.0578 11.7311 9.86889 11.8093 9.6587C11.8875 9.4485 11.9151 9.22287 11.89 9.00003C11.8997 8.72025 11.8414 8.44229 11.72 8.19003ZM11.84 13C11.3993 12.6815 10.8631 12.5227 10.32 12.55H7.15999V16.28H10.27C10.5459 16.2815 10.821 16.2513 11.09 16.19C11.3261 16.1675 11.5564 16.1032 11.77 16C11.9711 15.8642 12.1332 15.678 12.24 15.46C12.3679 15.1851 12.4263 14.8829 12.41 14.58C12.4533 14.2901 12.4238 13.9939 12.3243 13.7181C12.2249 13.4423 12.0584 13.1956 11.84 13Z" fill="white"/>
</svg>
