<svg width="30" height="24" viewBox="0 0 30 24" fill="none" xmlns="http://www.w3.org/2000/svg">
<path d="M15 20C10.59 20 7 16.41 7 12C7 7.59 10.59 4 15 4C19.41 4 23 7.6 23 12C23 16.4 19.41 20 15 20ZM21.75 13.1C21.52 13.03 19.63 12.46 17.49 12.81C18.38 15.31 18.79 17.31 18.79 17.68C20.35 16.6 21.4 15 21.8 13.1H21.75ZM17.67 18.3C17.57 17.7 17.17 15.61 16.21 13.12C16.19 13.12 16.18 13.13 16.16 13.13C12.31 14.47 10.92 17.15 10.8 17.4C11.96 18.3 13.4 18.8 15 18.8C15.95 18.8 16.9 18.6 17.7 18.3H17.67ZM9.92 16.58C10.07 16.31 11.95 13.21 15.47 12.07C15.56 12.04 15.65 12.01 15.74 11.99C15.57 11.6 15.38 11.21 15.19 10.83C11.78 11.85 8.47 11.81 8.17 11.8C8.17 11.9 8.17 11.9 8.17 12.01C8.17 13.8 8.8 15.4 9.9 16.58L9.92 16.6V16.58ZM8.31 10.61C8.62 10.61 11.41 10.61 14.63 9.78C13.5 7.77 12.28 6.08 12.1 5.83C10.18 6.7 8.8 8.5 8.3 10.61H8.31ZM13.4 5.4C13.59 5.6 14.8 7.3 15.9 9.4C18.33 8.49 19.36 7.11 19.48 6.93C18.32 5.8 16.7 5.2 15 5.18C14.45 5.2 13.9 5.2 13.4 5.4ZM20.29 7.69C20.15 7.88 19 9.35 16.47 10.38C16.63 10.68 16.77 11.08 16.97 11.37C17.02 11.47 17.07 11.57 17.07 11.67C19.34 11.38 21.57 11.87 21.87 11.89C21.82 10.3 21.2 8.8 20.3 7.69H20.29Z" fill="white"/>
</svg>
