<svg width="30" height="24" viewBox="0 0 30 24" fill="none" xmlns="http://www.w3.org/2000/svg">
<path d="M15 5.4C17.1 5.4 17.4 5.4 18.2 5.4C19 5.4 19.4 5.6 19.7 5.7C20.1 5.8 20.3 6 20.6 6.3C20.9 6.6 21.1 6.8 21.2 7.2C21.3 7.5 21.4 7.9 21.5 8.7C21.5 9.5 21.5 9.8 21.5 11.9C21.5 14 21.5 14.3 21.5 15.1C21.5 15.9 21.3 16.3 21.2 16.6C21.1 17 20.9 17.2 20.6 17.5C20.3 17.8 20.1 18 19.7 18.1C19.4 18.2 19 18.3 18.2 18.4C17.4 18.4 17.1 18.4 15 18.4C12.9 18.4 12.6 18.4 11.8 18.4C11 18.4 10.6 18.2 10.3 18.1C9.9 18 9.7 17.8 9.4 17.5C9.1 17.2 8.9 17 8.8 16.6C8.7 16.3 8.6 15.9 8.5 15.1C8.5 14.3 8.5 14 8.5 11.9C8.5 9.8 8.5 9.5 8.5 8.7C8.5 7.9 8.7 7.5 8.8 7.2C8.9 6.8 9.1 6.6 9.4 6.3C9.7 6 9.9 5.8 10.3 5.7C10.6 5.6 11 5.5 11.8 5.4C12.6 5.4 12.9 5.4 15 5.4ZM15 4C12.8 4 12.6 4 11.7 4C10.8 4 10.3 4.2 9.8 4.4C9.3 4.6 8.8 4.9 8.4 5.3C7.9 5.8 7.6 6.2 7.4 6.8C7.2 7.3 7.1 7.9 7 8.7C7 9.6 7 9.8 7 12C7 14.2 7 14.4 7 15.3C7 16.2 7.2 16.7 7.4 17.2C7.6 17.7 7.9 18.2 8.3 18.6C8.7 19 9.2 19.3 9.7 19.5C10.2 19.7 10.8 19.8 11.6 19.9C12.5 19.9 12.7 19.9 14.9 19.9C17.1 19.9 17.3 19.9 18.2 19.9C19.1 19.9 19.6 19.7 20.1 19.5C20.6 19.3 21.1 19 21.5 18.6C21.9 18.2 22.2 17.7 22.4 17.2C22.6 16.7 22.7 16.1 22.8 15.3C22.8 14.4 22.8 14.2 22.8 12C22.8 9.8 22.8 9.6 22.8 8.7C22.8 7.8 22.6 7.3 22.4 6.8C22.2 6.3 21.9 5.8 21.5 5.4C21.1 5 20.6 4.7 20.1 4.5C19.6 4.3 19 4.2 18.2 4.1C17.4 4 17.2 4 15 4Z" fill="white"/>
<path d="M15 7.8999C12.7 7.8999 10.9 9.6999 10.9 11.9999C10.9 14.2999 12.7 16.0999 15 16.0999C17.3 16.0999 19.1 14.2999 19.1 11.9999C19.1 9.6999 17.3 7.8999 15 7.8999ZM15 14.6999C13.5 14.6999 12.3 13.4999 12.3 11.9999C12.3 10.4999 13.5 9.2999 15 9.2999C16.5 9.2999 17.7 10.4999 17.7 11.9999C17.7 13.4999 16.5 14.6999 15 14.6999Z" fill="white"/>
<path d="M20.2 7.69995C20.2 8.19995 19.8 8.69995 19.2 8.69995C18.6 8.69995 18.2 8.29995 18.2 7.69995C18.2 7.09995 18.6 6.69995 19.2 6.69995C19.8 6.69995 20.2 7.19995 20.2 7.69995Z" fill="white"/>
</svg>
