<svg width="46" height="49" viewBox="0 0 46 49" fill="none" xmlns="http://www.w3.org/2000/svg">
<path fill-rule="evenodd" clip-rule="evenodd" d="M25.5556 2.57895C25.5556 1.15465 24.4114 0 23 0C21.5886 0 20.4444 1.15465 20.4444 2.57895V25.7895C20.4444 27.2138 21.5886 28.3684 23 28.3684C24.4114 28.3684 25.5556 27.2138 25.5556 25.7895V2.57895ZM14.3346 9.99187C15.5687 9.30079 16.014 7.73094 15.3292 6.48554C14.6444 5.24011 13.0888 4.79073 11.8547 5.48181C4.79047 9.43761 0 17.0472 0 25.7895C0 38.6084 10.2975 49 23 49C35.7026 49 46 38.6084 46 25.7895C46 17.1951 41.3698 9.69498 34.5018 5.68568C33.2802 4.97249 31.7167 5.39379 31.0101 6.62668C30.3035 7.85957 30.7208 9.43719 31.9427 10.1504C37.2963 13.2757 40.8889 19.1107 40.8889 25.7895C40.8889 35.7597 32.8798 43.8421 23 43.8421C13.1202 43.8421 5.11111 35.7597 5.11111 25.7895C5.11111 18.996 8.82847 13.0752 14.3346 9.99187Z" fill="white"/>
</svg>
