<svg width="177" height="38" viewBox="0 0 177 38" fill="none" xmlns="http://www.w3.org/2000/svg">
<path fill-rule="evenodd" clip-rule="evenodd" d="M176.292 29.3729H175.627C175.177 29.3729 174.919 29.1416 174.919 28.6778V22.9927C174.919 21.4972 174.618 20.3179 173.011 20.3179C170.993 20.3179 169.792 22.3606 169.792 24.4034V28.6778C169.792 29.1416 169.556 29.3729 169.105 29.3729H168.419C167.968 29.3729 167.732 29.1416 167.732 28.6778V22.9927C167.732 21.6026 167.518 20.3179 165.844 20.3179C163.784 20.3179 162.583 22.4236 162.583 24.4034V28.6778C162.583 29.1416 162.347 29.3729 161.875 29.3729H161.21C160.76 29.3729 160.501 29.1416 160.501 28.6778V19.4132C160.501 18.9495 160.76 18.7182 161.21 18.7182H161.811C162.283 18.7182 162.519 18.9495 162.519 19.4132V20.3602C162.519 20.6762 162.454 20.9705 162.454 20.9705H162.497C163.034 19.7282 164.556 18.4651 166.273 18.4651C168.097 18.4651 169.148 19.2862 169.534 20.8869H169.577C170.156 19.6445 171.658 18.4651 173.417 18.4651C175.885 18.4651 177 19.8335 177 22.5507V28.6778C177 29.1416 176.764 29.3729 176.292 29.3729ZM152.355 29.6259C149.115 29.6259 146.519 27.2671 146.519 24.0244C146.519 20.8022 149.115 18.4651 152.355 18.4651C155.594 18.4651 158.212 20.8022 158.212 24.0244C158.212 27.2671 155.594 29.6259 152.355 29.6259ZM152.355 20.2331C150.316 20.2331 148.622 21.8133 148.622 24.0244C148.622 26.2561 150.316 27.8568 152.355 27.8568C154.414 27.8568 156.088 26.2561 156.088 24.0244C156.088 21.8133 154.414 20.2331 152.355 20.2331ZM141.052 29.6259C137.641 29.6259 135.259 27.2465 135.259 24.045C135.259 20.8869 137.662 18.4651 141.052 18.4651C142.876 18.4651 144.056 19.1602 144.634 19.6022C145 19.8335 145.021 20.1919 144.764 20.5503L144.548 20.8652C144.292 21.2442 143.991 21.2659 143.584 21.0335C143.133 20.7175 142.296 20.2331 141.159 20.2331C138.972 20.2331 137.383 21.8339 137.383 24.0244C137.383 26.1931 138.972 27.8568 141.202 27.8568C142.51 27.8568 143.454 27.2671 143.97 26.8881C144.356 26.6362 144.678 26.6774 144.935 27.0782L145.106 27.3931C145.321 27.7515 145.257 28.0892 144.914 28.3205C144.312 28.8049 143.004 29.6259 141.052 29.6259ZM132.429 29.3729H131.615C131.143 29.3729 130.907 29.1416 130.907 28.6778V27.8568C130.907 27.3931 131.143 27.1618 131.615 27.1618H132.429C132.902 27.1618 133.137 27.3931 133.137 27.8568V28.6778C133.137 29.1416 132.902 29.3729 132.429 29.3729ZM112.8 38C110.289 38 107.694 37.507 106.397 36.9727C104.974 36.3982 104.598 35.4946 105.141 34.0568L105.602 32.8242C106.146 31.4276 106.984 31.016 108.531 31.509C109.578 31.8381 110.709 32.0846 112.382 32.0846C115.102 32.0846 117.446 31.1398 117.446 28.0176V26.95C117.446 26.7024 117.488 26.1692 117.488 26.1692H117.404C116.232 27.8525 114.683 28.7571 112.131 28.7571C105.519 28.7571 102.295 23.54 102.295 18.1165C102.295 12.7354 105.434 7.72359 112.174 7.72359C116.777 7.72359 118.075 10.4755 118.075 10.4755H118.158C118.158 10.4755 118.116 10.3115 118.116 10.065V9.98245C118.116 8.99637 118.911 8.21663 120.418 8.21663H122.384C123.891 8.21663 124.686 8.99637 124.686 10.4755V27.442C124.686 35.1656 118.284 38 112.8 38ZM113.429 13.639C110.876 13.639 109.578 15.4461 109.578 17.87C109.578 20.4992 110.834 22.8406 113.721 22.8406C115.605 22.8406 117.613 21.8969 117.613 18.1991C117.613 14.4611 115.605 13.639 113.429 13.639ZM97.1045 29.3729H94.4676C92.9608 29.3729 92.1655 28.5931 92.1655 27.114V16.9665C92.1655 14.9954 91.3701 14.1733 89.7793 14.1733C86.5569 14.1733 85.0921 16.8025 85.0921 19.8009V27.114C85.0921 28.5931 84.2967 29.3729 82.7911 29.3729H80.1542C78.6474 29.3729 77.852 28.5931 77.852 27.114V10.4755C77.852 8.99637 78.6474 8.21663 80.1542 8.21663H82.4972C84.004 8.21663 84.7574 8.99637 84.7574 10.4755V10.8458C84.7574 11.0511 84.7154 11.379 84.7154 11.379H84.7994C85.8035 9.73702 87.855 7.72359 91.6628 7.72359C96.0164 7.72359 99.4067 9.69467 99.4067 15.6524V27.114C99.4067 28.5931 98.6113 29.3729 97.1045 29.3729ZM71.2802 29.3729H68.6433C67.1365 29.3729 66.3411 28.5931 66.3411 27.114V10.4755C66.3411 8.99637 67.1365 8.21663 68.6433 8.21663H71.2802C72.787 8.21663 73.5824 8.99637 73.5824 10.4755V27.114C73.5824 28.5931 72.787 29.3729 71.2802 29.3729ZM71.1962 5.54617H68.7273C67.2205 5.54617 66.4251 4.76534 66.4251 3.2873V2.25995C66.4251 0.780829 67.2205 0 68.7273 0H71.1962C72.703 0 73.4984 0.780829 73.4984 2.25995V3.2873C73.4984 4.76534 72.703 5.54617 71.1962 5.54617ZM53.1555 29.8659C49.2637 29.8659 47.6729 27.442 47.6729 27.442H47.589C47.589 27.442 47.6729 28.1815 47.6729 29.2502V35.3295C47.6729 36.8087 46.8775 37.5895 45.3707 37.5895H42.7338C41.2282 37.5895 40.4328 36.8087 40.4328 35.3295V10.4755C40.4328 8.99637 41.2282 8.21663 42.7338 8.21663H44.6185C46.1241 8.21663 46.9195 8.99637 46.9195 10.065V10.5168C46.9195 10.722 46.8775 10.9284 46.8775 10.9284H46.9615C46.9615 10.9284 48.929 7.72359 53.4902 7.72359C59.3506 7.72359 63.2004 12.2424 63.2004 18.8159C63.2004 25.5122 58.8899 29.8659 53.1555 29.8659ZM51.6907 13.7215C49.5144 13.7215 47.4641 15.2821 47.4641 18.9386C47.4641 21.4853 48.845 23.9918 51.6907 23.9918C53.9509 23.9918 55.9183 22.1836 55.9183 18.9386C55.9183 15.7751 54.2016 13.7215 51.6907 13.7215ZM29.841 31.6328C28.0426 36.3569 24.2756 38 20.8433 38C19.7132 38 18.6671 37.7535 17.8297 37.4668C16.4488 37.0139 16.1141 35.8226 16.6996 34.5085L17.2442 33.3172C17.8297 32.0433 18.709 31.8381 19.5884 32.0021C19.9231 32.0846 20.3418 32.2084 20.8433 32.2084C22.1413 32.2084 23.3134 31.181 23.8149 29.9474L24.2336 28.9624L16.2401 10.8458C15.5286 9.28416 16.2401 8.21663 17.9976 8.21663H21.262C22.6428 8.21663 23.4802 8.83239 23.8989 10.065L26.4518 17.9526C26.8285 19.1037 27.2472 21.2388 27.2472 21.2388H27.33C27.33 21.2388 27.7487 19.2264 28.0426 18.0753L30.2188 10.1475C30.5955 8.83239 31.4317 8.21663 32.8137 8.21663H35.8682C37.5429 8.21663 38.2963 9.24398 37.7097 10.8046L29.841 31.6328ZM11.9704 29.5792C8.7889 29.5792 2.88765 28.1414 2.88765 21.8556V14.132H2.25906C0.794246 14.132 0 13.3512 0 11.8732V10.8458C0 9.36669 0.794246 8.58587 2.30104 8.58587H3.09643V4.76534C3.09643 3.2873 3.89181 2.50647 5.3986 2.50647H7.82673C9.33239 2.50647 10.1278 3.2873 10.1278 4.76534V8.58587H12.3471C13.8528 8.58587 14.6482 9.36669 14.6482 10.8458V11.8732C14.6482 13.3512 13.8528 14.132 12.388 14.132H10.1278V20.5405C10.1278 22.3487 11.3418 23.047 12.6399 23.2109C14.3134 23.4162 14.9409 23.9092 14.9409 25.4698V27.3193C14.9409 29.0036 13.8948 29.5792 11.9704 29.5792Z" fill="white"/>
</svg>
