<svg width="70" height="78" viewBox="0 0 70 78" fill="none" xmlns="http://www.w3.org/2000/svg">
<path d="M14.1604 11.2764C15.1476 10.491 16.7168 10.6667 17.7682 9.97011C19.0736 9.10532 19.8615 7.41688 21.2685 6.69839C22.668 5.98498 24.1175 5.33299 25.5962 4.73408C27.0764 4.13421 28.588 3.58586 30.1249 3.06987C31.659 2.55572 33.2186 2.07371 34.789 1.61188C35.8556 1.2982 36.9291 0.992734 38.0039 0.691473C38.4756 0.559027 38.9465 0.427908 39.4186 0.296621C39.771 0.198897 40.1234 0.101173 40.4758 0.00345001C40.525 -0.00995251 40.5995 0.018584 40.6851 0.0856583C40.7708 0.152878 40.8601 0.252478 40.9358 0.366447C41.0115 0.480492 41.0688 0.601729 41.0974 0.706494C41.1257 0.811016 41.1226 0.890096 41.0909 0.929683C40.86 1.21544 40.6291 1.50119 40.3981 1.78696C40.1416 2.10421 39.8857 2.42129 39.6288 2.73783C39.2669 2.30414 38.961 1.99601 38.7257 1.92662C38.6056 1.89124 38.4858 1.92294 38.4717 2.05765C38.459 2.17866 38.5029 2.3502 38.5449 2.51357C38.5888 2.68444 38.6305 2.84666 38.6024 2.93242C38.5548 3.07801 38.5916 3.33983 38.6303 3.61486C38.6443 3.71497 38.6587 3.81695 38.6693 3.91563C38.4231 4.2164 38.1764 4.51644 37.9292 4.81563C37.7766 4.84528 37.64 4.87806 37.5595 4.9592C37.4874 5.03199 37.4765 5.18169 37.4819 5.35523C37.4435 5.4014 37.4052 5.44757 37.3668 5.49373C37.1189 5.79125 36.8699 6.08738 36.6203 6.38271C36.2961 6.41835 35.9626 6.46528 35.5984 6.63066C35.4415 6.70194 35.2568 6.72741 35.0794 6.75201C34.8173 6.78834 34.5707 6.82261 34.4517 6.99867C34.3721 7.11636 34.213 7.1268 34.0544 7.13724C33.8416 7.15123 33.6292 7.16519 33.6095 7.43781C33.5971 7.60924 33.6081 7.80035 33.6184 7.97752C33.6348 8.25942 33.6493 8.5059 33.5636 8.58053C33.4026 8.72067 33.3482 8.97008 33.3004 9.19002C33.243 9.45454 33.1948 9.67645 32.9813 9.61383C32.9489 9.60433 32.9093 9.58948 32.8644 9.57246C32.6278 9.48271 32.2494 9.33916 32.0679 9.67704C32.0032 9.79736 32.0017 9.99938 32.0004 10.1975C31.9985 10.4859 31.9965 10.7659 31.7997 10.7728C31.7703 10.7737 31.7126 10.7343 31.66 10.6982C31.5931 10.6523 31.5347 10.6123 31.5533 10.6685C31.6078 10.8335 31.6496 11.0281 31.6951 11.2398C31.7286 11.3953 31.7641 11.5602 31.8079 11.729C31.4976 12.0471 31.185 12.362 30.8697 12.673C30.7253 12.8155 30.5803 12.9572 30.4347 13.0982C30.2101 12.9445 29.9975 12.813 29.8107 12.7308C29.5664 12.6233 29.3729 12.6693 29.1233 12.7282C28.9397 12.7715 28.7254 12.8218 28.4385 12.8237C27.9075 12.8272 27.5636 13.1342 27.4065 13.4261C27.3732 13.4878 27.341 13.5515 27.3068 13.6203C27.1773 13.8809 27.0159 14.2067 26.6292 14.7049C26.2634 15.176 25.8902 15.4833 25.6099 15.7141C25.4667 15.8319 25.3475 15.9294 25.2661 16.019C25.1268 16.1724 24.9462 16.3466 24.7649 16.5212C24.4811 16.7945 24.1954 17.0693 24.0636 17.2699C24.0167 17.3414 23.9709 17.4216 23.9213 17.5078C23.7837 17.7467 23.6173 18.0352 23.3225 18.334C23.0129 18.6477 22.7563 18.7447 22.4512 18.7876C22.3273 18.805 22.1258 18.682 21.918 18.5546C21.623 18.374 21.3152 18.1853 21.1982 18.3805C21.1708 18.426 21.1564 18.4968 21.1415 18.5711C21.114 18.7074 21.0844 18.855 20.9679 18.8764C20.9272 18.8839 20.8672 18.854 20.8083 18.8247C20.7436 18.7925 20.6802 18.7611 20.645 18.7804C20.5133 18.8527 20.4 18.9454 20.2994 19.0279C20.1696 19.1342 20.0608 19.2233 19.9603 19.2291C19.7813 19.2393 19.6852 19.4006 19.5881 19.5643C19.514 19.6893 19.4393 19.8159 19.3261 19.8769C19.0024 20.0511 18.6689 20.4584 18.3796 20.9599C18.2701 21.1496 18.0581 21.1309 17.7861 21.1066C17.617 21.0915 17.4244 21.0738 17.2194 21.1035C17.1032 21.1204 17.0939 21.2688 17.0852 21.406C17.0772 21.5324 17.0696 21.6494 16.9797 21.6459C16.9004 21.6428 16.7562 21.4994 16.6193 21.3632C16.4669 21.2117 16.3235 21.0692 16.2885 21.1389C16.2699 21.1759 16.2886 21.2832 16.3108 21.4106C16.3195 21.461 16.3286 21.5144 16.3364 21.5682C16.315 21.5339 16.2953 21.5036 16.2802 21.4808C16.1732 21.3198 16.0593 21.2733 15.9477 21.2278C15.9031 21.2097 15.8589 21.1918 15.8156 21.1667C15.6564 21.0744 15.513 21.1374 15.4191 21.2091C15.3793 21.2393 15.3085 21.2145 15.2258 21.1854C15.1524 21.1596 15.0697 21.1305 14.9911 21.1338C14.9463 21.1358 14.8907 21.1054 14.8445 21.08C14.8111 21.0616 14.7826 21.0458 14.7667 21.0472C14.7531 21.0484 14.7756 21.0999 14.8011 21.158C14.8194 21.1997 14.8392 21.245 14.848 21.2772C14.8691 21.3543 14.8549 21.3913 14.8225 21.3835C14.8075 21.3799 14.7887 21.3666 14.77 21.3532C14.7482 21.3377 14.7263 21.322 14.7105 21.3219C14.6381 21.3216 14.6244 21.4067 14.6101 21.495C14.5944 21.592 14.5778 21.693 14.4822 21.6894C14.4522 21.6882 14.4081 21.669 14.3655 21.6503C14.3208 21.6308 14.2776 21.612 14.2536 21.6152C14.1563 21.6285 14.1636 21.7896 14.1703 21.9378C14.1748 22.0363 14.1788 22.1291 14.1519 22.169C14.1023 22.2419 14.1577 22.4043 14.1986 22.5242C14.2198 22.5863 14.2372 22.6373 14.2341 22.6583C14.2206 22.6618 14.2064 22.6646 14.1923 22.6668C14.1756 22.6633 14.1583 22.6596 14.1508 22.6694C14.1503 22.6701 14.15 22.6712 14.1494 22.672C14.0664 22.6789 13.9751 22.6711 13.8842 22.6631C13.6802 22.6453 13.4786 22.6275 13.3788 22.7794C13.3574 22.8122 13.3647 22.8895 13.3722 22.9681C13.3813 23.0645 13.3906 23.163 13.3475 23.1841C13.2446 23.2346 13.0866 23.2039 12.9309 23.1738C12.6968 23.1283 12.468 23.0841 12.4403 23.318C12.4312 23.3952 12.4449 23.5046 12.4589 23.6147C12.4667 23.676 12.4747 23.7379 12.4785 23.794C12.4332 23.7152 12.3887 23.6425 12.3471 23.5747C12.2615 23.435 12.1883 23.3154 12.1447 23.2015C12.0416 22.9322 11.8868 22.5701 11.7238 22.3393C11.6796 22.2767 11.6338 22.2046 11.5878 22.132C11.4724 21.9497 11.3546 21.7636 11.2505 21.7132C11.1804 21.6792 11.0105 21.6071 11.0479 21.7802C11.0561 21.8179 11.0884 21.882 11.1243 21.9532C11.1887 22.0811 11.265 22.2327 11.2357 22.2993C11.2307 22.3104 11.2247 22.3216 11.2181 22.3327C11.1919 22.3767 11.1623 22.4256 11.2094 22.5316C11.2638 22.6536 11.3513 22.7765 11.4533 22.9199C11.5861 23.1067 11.7438 23.3285 11.8854 23.6282C11.9134 23.6874 11.9105 23.7159 11.9085 23.7376C11.907 23.7528 11.9061 23.7648 11.9163 23.7815C11.928 23.8006 11.9564 23.8377 11.9923 23.8846C12.119 24.0503 12.3403 24.3397 12.2653 24.4081C12.2449 24.4266 12.2095 24.4294 12.1776 24.4318C12.1307 24.4353 12.0918 24.4384 12.1209 24.4904C12.132 24.5102 12.1445 24.5312 12.1577 24.5529C12.1265 24.565 12.0953 24.5772 12.0642 24.5893C11.99 24.5535 11.9443 24.5911 11.8875 24.6383C11.8737 24.6498 11.8591 24.6617 11.8434 24.6733C11.7815 24.6968 11.7197 24.7204 11.6577 24.7436C11.5985 24.7469 11.5261 24.7362 11.4352 24.7032C11.2531 24.6372 11.0274 24.4786 10.8068 24.3235C10.7138 24.2581 10.6216 24.1932 10.534 24.1362C10.5409 24.1175 10.5453 24.0978 10.5441 24.0756C10.5353 23.9238 10.4179 23.6917 10.3099 23.478C10.2381 23.3359 10.1703 23.2019 10.1416 23.1055C10.0889 22.9288 9.97026 22.7602 9.88258 22.6354C9.83711 22.5707 9.79995 22.5176 9.78463 22.4816C9.77239 22.4528 9.77549 22.4333 9.77866 22.4132C9.78143 22.3956 9.7842 22.3774 9.77705 22.3523C9.69028 22.0476 9.56917 21.9178 9.39294 21.7288C9.29574 21.6246 9.18178 21.5022 9.04747 21.3227C8.90733 21.1313 8.87195 21.0715 8.86175 20.9649C8.76417 20.8892 8.66658 20.8135 8.569 20.7378C8.56035 20.7527 8.59112 20.8202 8.64474 20.9305C8.74049 21.1277 8.70473 21.2467 8.67679 21.3398C8.66386 21.3829 8.65267 21.4204 8.65693 21.4576C8.67962 21.6552 8.83806 21.846 8.97749 22.0138C9.05424 22.1063 9.12523 22.1918 9.16465 22.2677C9.18154 22.3001 9.20616 22.3271 9.23121 22.3546C9.25057 22.3759 9.2703 22.3975 9.28692 22.4222C9.40754 22.6015 9.45177 22.7647 9.49287 22.9162C9.51641 23.003 9.53913 23.0862 9.57437 23.1662C9.5851 23.1906 9.59692 23.215 9.60848 23.2385C9.62537 23.2729 9.64138 23.3057 9.65224 23.3358C9.67697 23.4042 9.6737 23.4636 9.66996 23.5284C9.66805 23.5617 9.66604 23.5964 9.6677 23.6345C9.66987 23.684 9.7095 23.7603 9.75083 23.84C9.78003 23.8964 9.81001 23.9545 9.82862 24.0064C9.86225 24.1003 9.84127 24.1562 9.82181 24.2081C9.81333 24.2307 9.80534 24.2529 9.80206 24.2767C9.80073 24.2865 9.80627 24.3004 9.81686 24.3176C9.79288 24.4148 9.77247 24.5113 9.75283 24.6056C9.65442 25.0785 9.56949 25.4881 9.08144 25.5565C8.98917 25.5695 8.91849 25.6261 8.86045 25.7034C8.57069 25.7943 8.27927 25.8829 7.98683 25.9695C7.83098 25.8393 7.68168 25.7422 7.54106 25.6816C7.277 25.5679 7.11407 25.6143 6.9218 25.6692C6.77964 25.7097 6.62134 25.7547 6.39428 25.743C6.01277 25.7234 5.64384 25.7375 5.29241 25.851C4.94251 25.964 4.5644 26.1272 4.31122 26.2643C4.1732 26.3389 3.94006 26.2848 3.7229 26.2345C3.41744 26.1637 3.14348 26.1004 3.20936 26.4125C3.23043 26.5122 3.29115 26.6693 3.35008 26.8219C3.39205 26.9306 3.43284 27.0369 3.45836 27.1193C3.39009 27.1339 3.32191 27.1487 3.25346 27.163C3.04804 27.0624 2.7815 26.9853 2.75907 27.2647C2.68822 27.2791 2.61741 27.2937 2.54831 27.3066C2.3989 27.337 2.25162 27.365 2.10307 27.3934C2.05444 27.4024 2.00542 27.4117 1.95625 27.421C1.95576 27.421 1.95527 27.4211 1.95479 27.4211C1.85581 27.4398 1.7561 27.4586 1.65754 27.4763C1.61536 27.4839 1.57318 27.4916 1.531 27.4992C1.42385 27.5187 1.31601 27.5385 1.20937 27.5569C1.15286 27.5666 1.09604 27.5767 1.03894 27.5865C0.946312 27.6025 0.853025 27.6187 0.759969 27.6344C0.60949 27.6598 0.459162 27.6843 0.308344 27.7085C0.283614 27.7123 0.247229 27.6971 0.206279 27.6645C0.165287 27.6318 0.123117 27.5847 0.0874465 27.531C0.0517664 27.4773 0.0246517 27.42 0.0105349 27.3697C-0.00349004 27.3195 -0.00307466 27.2807 0.010197 27.2596C0.0919243 27.1313 0.173873 27.0037 0.256588 26.8761C0.307701 26.7973 0.358963 26.718 0.410154 26.6397C0.441718 26.5914 0.473359 26.5435 0.504522 26.4956C0.563493 26.4055 0.624058 26.3143 0.684211 26.2241C0.707838 26.1885 0.731465 26.153 0.755091 26.1174C0.810383 26.0341 0.86719 25.9504 0.923477 25.8671C0.923821 25.8666 0.924165 25.8661 0.924509 25.8656C0.9522 25.8246 0.979813 25.7836 1.00711 25.7431C1.09178 25.6185 1.17572 25.495 1.26254 25.3705C1.30668 25.305 1.35376 25.2384 1.4002 25.1719C1.42605 25.1349 1.45179 25.0978 1.477 25.0613C1.49091 25.0415 1.50512 25.0217 1.51941 25.0017C1.84401 24.5385 2.16985 24.0838 2.50421 23.6332C2.83692 23.1837 3.17474 22.7402 3.51528 22.3036C3.85687 21.8663 4.20188 21.4358 4.551 21.0107C6.76637 18.3124 9.09458 15.7598 11.5973 13.4671C11.954 13.1397 12.3253 12.8116 12.6908 12.4956C13.0606 12.1768 13.4259 11.8691 13.805 11.5618C13.9199 11.4681 14.0383 11.3731 14.1604 11.2764ZM31.7129 36.7282C33.326 36.3894 35.0364 37.1707 36.6706 36.9395C36.706 36.9345 36.7414 36.9292 36.7768 36.9236C38.7667 36.6091 40.6593 35.3964 42.6822 35.287C44.7293 35.1775 46.7972 35.1445 48.8672 35.1723C50.9395 35.1997 53.0174 35.2873 55.105 35.4149C57.1883 35.5431 59.2817 35.711 61.3756 35.9019C62.7979 36.0316 64.2231 36.1717 65.6473 36.3161C66.2725 36.3792 66.896 36.4433 67.521 36.5077C67.9873 36.5561 68.4537 36.6044 68.92 36.6527C68.9848 36.6596 69.054 36.7155 69.1128 36.8114C69.1716 36.9074 69.2153 37.0349 69.2345 37.1704C69.2538 37.3059 69.2474 37.4409 69.2176 37.5492C69.1878 37.6573 69.1367 37.7293 69.0763 37.7535C68.6378 37.9273 68.1993 38.1011 67.7608 38.275C67.2737 38.4679 66.7875 38.6609 66.3004 38.8529C66.1417 38.3084 65.9726 37.9023 65.7419 37.7452C65.6241 37.6651 65.4666 37.6473 65.3694 37.7665C65.2822 37.8737 65.2301 38.05 65.1808 38.2179C65.1292 38.3936 65.0802 38.5604 64.9962 38.6288C64.8538 38.7449 64.7394 39.0021 64.6193 39.2722C64.5756 39.3705 64.5311 39.4707 64.4841 39.5663C64.019 39.748 63.5536 39.9289 63.0882 40.1087C62.8939 40.076 62.7161 40.0526 62.5744 40.0961C62.4472 40.1351 62.3449 40.2695 62.2471 40.4325C62.1751 40.4602 62.103 40.4878 62.0309 40.5155C61.5657 40.6935 61.1 40.8698 60.6342 41.0451C60.2377 40.9504 59.8237 40.8624 59.3032 40.8722C59.0788 40.8764 58.8499 40.8272 58.6298 40.78C58.3047 40.7104 57.999 40.645 57.7557 40.7612C57.593 40.8389 57.4027 40.7859 57.2129 40.7331C56.9583 40.6622 56.7042 40.5914 56.5179 40.8363C56.4008 40.9903 56.2989 41.1717 56.2046 41.34C56.0546 41.6077 55.9235 41.8418 55.7796 41.8772C55.5093 41.9436 55.2969 42.1533 55.1098 42.3383C54.8847 42.5608 54.6959 42.7475 54.4864 42.6053C54.4547 42.5838 54.4176 42.5544 54.3759 42.5209C54.156 42.3445 53.8043 42.0623 53.3916 42.3039C53.2447 42.3899 53.1218 42.5765 53.0015 42.7596C52.8263 43.0262 52.6562 43.2849 52.4244 43.2136C52.3897 43.203 52.3467 43.1437 52.3075 43.0895C52.2576 43.0206 52.214 42.9605 52.2018 43.02C52.1659 43.1943 52.0976 43.3911 52.0234 43.6053C51.9688 43.7626 51.9111 43.9294 51.8606 44.1031C51.3108 44.2756 50.7604 44.4442 50.2091 44.6081C49.9565 44.6833 49.7037 44.7575 49.4507 44.8307C49.2831 44.5999 49.1159 44.3941 48.949 44.2443C48.7308 44.0485 48.4794 44.0148 48.1553 43.971C47.9168 43.9387 47.6388 43.9009 47.3057 43.7896C46.6891 43.5836 46.1072 43.7325 45.7504 43.9411C45.6749 43.9852 45.5994 44.0316 45.5186 44.0818C45.2125 44.2723 44.8304 44.5107 44.0844 44.8199C43.3786 45.1124 42.7626 45.25 42.2998 45.3534C42.0636 45.4062 41.8672 45.4496 41.7192 45.5006C41.4661 45.5878 41.1528 45.6781 40.8382 45.7684C40.346 45.9098 39.8506 46.0518 39.5779 46.1859C39.4808 46.2336 39.3797 46.2899 39.2706 46.3502C38.9899 46.5054 38.655 46.6903 38.1922 46.8446C38.1564 46.8566 38.1198 46.8683 38.0824 46.8799C37.5362 47.0486 37.1811 47.0374 36.8024 46.9569C36.6485 46.9242 36.4892 46.7307 36.325 46.5308C36.0921 46.2471 35.849 45.951 35.5966 46.0857C35.5377 46.1172 35.4786 46.1771 35.4168 46.24C35.3033 46.3555 35.1805 46.4807 35.0328 46.4545C34.9813 46.4454 34.9297 46.3941 34.8792 46.3438C34.8236 46.2884 34.7691 46.2343 34.7167 46.2383C34.521 46.2534 34.3344 46.2946 34.1685 46.3314C33.9546 46.3789 33.7753 46.4185 33.6556 46.3843C33.4422 46.3232 33.2344 46.4348 33.024 46.5482C32.8632 46.6348 32.7009 46.7228 32.5333 46.7347C32.0544 46.7685 31.4243 47.0146 30.7889 47.3654C30.5484 47.498 30.3143 47.3971 30.0142 47.2674C29.8276 47.1867 29.6154 47.0945 29.3603 47.0411C29.2158 47.0109 29.1161 47.1448 29.0237 47.2686C28.9387 47.3826 28.8598 47.488 28.7579 47.4493C28.6679 47.4151 28.587 47.2255 28.5103 47.0453C28.4248 46.8448 28.3444 46.6562 28.2621 46.707C28.2184 46.734 28.1757 46.8408 28.1249 46.9676C28.1048 47.0178 28.0833 47.0709 28.0601 47.1237C28.0559 47.0835 28.0512 47.0477 28.0474 47.0206C28.0202 46.8293 27.9163 46.7413 27.8144 46.6551C27.7737 46.6207 27.7332 46.5868 27.6982 46.5465C27.5693 46.3981 27.3657 46.4 27.214 46.4294C27.1498 46.4418 27.0828 46.3908 27.0046 46.3313C26.9352 46.2785 26.8569 46.2189 26.7639 46.191C26.7109 46.1751 26.6648 46.1251 26.6266 46.0833C26.599 46.0531 26.5754 46.0272 26.5563 46.0223C26.5398 46.018 26.535 46.0747 26.5296 46.1384C26.5257 46.1844 26.5215 46.2341 26.5124 46.2675C26.4906 46.3473 26.4519 46.3759 26.4191 46.3559C26.404 46.3467 26.3902 46.3269 26.3766 46.3072C26.3606 46.2842 26.3448 46.261 26.3265 46.2547C26.2429 46.2259 26.176 46.2993 26.1065 46.3755C26.0302 46.4593 25.9505 46.5463 25.8421 46.5053C25.808 46.4924 25.7686 46.4572 25.7304 46.4231C25.6905 46.3873 25.6517 46.3529 25.622 46.3465C25.5014 46.3204 25.4133 46.4726 25.3322 46.6126C25.2783 46.7057 25.2274 46.7932 25.1723 46.8195C25.0712 46.8676 25.0379 47.0399 25.0133 47.1671C25.0006 47.2331 24.9903 47.2872 24.974 47.3055C24.9563 47.3033 24.9383 47.3003 24.9205 47.2968C24.9033 47.287 24.8855 47.2768 24.8711 47.2829C24.87 47.2834 24.8689 47.2842 24.8678 47.2847C24.7676 47.2584 24.6667 47.2152 24.5663 47.172C24.3409 47.0751 24.1183 46.9791 23.9119 47.0806C23.8674 47.1025 23.8295 47.1771 23.791 47.2529C23.7438 47.3457 23.6955 47.4407 23.6329 47.4433C23.4836 47.4495 23.3191 47.3588 23.1571 47.2695C22.9135 47.1351 22.6753 47.004 22.503 47.2098C22.4461 47.2778 22.3964 47.3845 22.3466 47.4921C22.3189 47.5521 22.291 47.6125 22.2619 47.666C22.2567 47.5751 22.2487 47.4902 22.2413 47.411C22.226 47.2478 22.213 47.1081 22.2308 46.9853C22.2729 46.6952 22.311 46.2986 22.2608 46.0204C22.2472 45.9449 22.2374 45.8601 22.2277 45.7747C22.2035 45.5603 22.1787 45.3414 22.0886 45.2536C22.0279 45.1945 21.8744 45.0607 21.814 45.2359C21.8008 45.2741 21.7998 45.3462 21.7986 45.4263C21.7965 45.5703 21.7938 45.7408 21.72 45.7909C21.7076 45.7993 21.6939 45.8073 21.6796 45.8149C21.6229 45.8454 21.5593 45.8791 21.5504 45.9959C21.5401 46.1304 21.5676 46.2788 21.5996 46.4519C21.6413 46.6773 21.6909 46.9451 21.675 47.2786C21.6718 47.3445 21.6515 47.3698 21.6361 47.389C21.6253 47.4026 21.617 47.4134 21.6188 47.4328C21.6209 47.4551 21.6315 47.5007 21.6449 47.5584C21.6922 47.7618 21.7747 48.1173 21.6469 48.1511C21.6123 48.1602 21.5696 48.1488 21.5313 48.1385C21.4748 48.1233 21.428 48.1108 21.4305 48.1705C21.4314 48.1932 21.4333 48.2176 21.4356 48.2429C21.3922 48.2418 21.3489 48.2408 21.3055 48.2398C21.2412 48.1773 21.1658 48.1942 21.0718 48.2156C21.049 48.2208 21.0249 48.226 20.9997 48.2306C20.9141 48.228 20.8285 48.2255 20.7428 48.2226C20.6723 48.2023 20.5949 48.1638 20.5095 48.0975C20.3384 47.9645 20.1723 47.7285 20.0101 47.4978C19.9417 47.4006 19.874 47.3041 19.8067 47.2168C19.826 47.2021 19.8429 47.1856 19.8547 47.1646C19.9356 47.0204 19.939 46.7591 19.9421 46.5185C19.9442 46.3584 19.9462 46.2075 19.9707 46.1068C20.0156 45.9224 19.9795 45.7193 19.9529 45.5692C19.939 45.4913 19.9279 45.4274 19.9317 45.388C19.9349 45.3565 19.9501 45.3396 19.9659 45.3222C19.9796 45.3071 19.9937 45.2912 20.0005 45.2652C20.0828 44.9486 20.0205 44.7806 19.9299 44.536C19.8799 44.4011 19.8214 44.2428 19.7736 44.0235C19.7263 43.7908 19.7212 43.7215 19.7733 43.6187C19.7057 43.5101 19.6382 43.4015 19.5707 43.2928C19.5518 43.3032 19.5469 43.3778 19.5428 43.5013C19.5354 43.7217 19.4226 43.8179 19.3345 43.8932C19.2937 43.928 19.2582 43.9584 19.2409 43.9945C19.1487 44.1866 19.2176 44.4258 19.2783 44.6364C19.3117 44.7523 19.3425 44.8595 19.3427 44.9454C19.3428 44.9821 19.3551 45.0168 19.3676 45.0522C19.3772 45.0795 19.3871 45.1074 19.3915 45.1368C19.4236 45.3505 19.3769 45.5192 19.3336 45.6758C19.3088 45.7655 19.2852 45.8515 19.278 45.9396C19.2758 45.9665 19.2748 45.9937 19.2741 46.0201C19.273 46.0586 19.2719 46.0953 19.2664 46.1274C19.254 46.2006 19.2146 46.2543 19.1714 46.3129C19.1493 46.343 19.1262 46.3744 19.1052 46.4104C19.078 46.4571 19.0782 46.5434 19.0782 46.6336C19.0782 46.6973 19.078 46.763 19.0684 46.8184C19.051 46.9187 18.9932 46.9623 18.9396 47.0027C18.9163 47.0203 18.8937 47.0377 18.8756 47.0585C18.8682 47.067 18.8663 47.0821 18.8682 47.1022C18.7822 47.1828 18.7007 47.2642 18.6215 47.3439C18.2241 47.7433 17.8802 48.0895 17.2745 47.9606C17.16 47.9362 17.0442 47.9608 16.9307 48.0096C16.541 47.9796 16.1507 47.9469 15.7604 47.9119C15.6581 47.7298 15.5436 47.5809 15.4172 47.4694C15.1799 47.2599 14.9635 47.2387 14.7082 47.2138C14.5194 47.1953 14.3092 47.1746 14.0535 47.0743C13.6239 46.9057 13.1885 46.7734 12.7139 46.7401C12.2412 46.7069 11.7059 46.7091 11.3308 46.7363C11.1263 46.7512 10.8891 46.6091 10.668 46.4769C10.357 46.2909 10.0779 46.1243 9.96703 46.4394C9.93163 46.5402 9.9077 46.7097 9.88437 46.8743C9.86776 46.9916 9.85122 47.1062 9.83134 47.1926C9.74364 47.1792 9.65589 47.166 9.56808 47.1523C9.39071 46.9782 9.12851 46.8017 8.93507 47.0518C8.84445 47.0372 8.75378 47.0228 8.66607 47.0075C8.47501 46.9768 8.28779 46.9447 8.0989 46.9124C8.0372 46.9017 7.97492 46.891 7.91248 46.8801C7.91188 46.88 7.91128 46.8799 7.91069 46.8797C7.78499 46.858 7.65835 46.8361 7.53368 46.8137C7.48029 46.8042 7.42691 46.7946 7.37352 46.7851C7.23785 46.7609 7.10122 46.7367 6.96678 46.7118C6.89561 46.6985 6.82381 46.6854 6.75184 46.672C6.63509 46.6503 6.51746 46.6286 6.40038 46.6064C6.21103 46.5707 6.02242 46.5341 5.8334 46.4971C5.80248 46.4909 5.76953 46.4624 5.7417 46.4161C5.71386 46.3696 5.6933 46.3094 5.68422 46.2456C5.67515 46.1817 5.67812 46.1179 5.69196 46.0657C5.70581 46.0137 5.72955 45.9779 5.75754 45.9636C5.92904 45.8769 6.10039 45.7909 6.27256 45.7053C6.37896 45.6524 6.48583 45.5991 6.59203 45.5467C6.6575 45.5144 6.72282 45.4825 6.78756 45.4504C6.90985 45.3901 7.03459 45.3295 7.15828 45.2696C7.20694 45.2459 7.25559 45.2223 7.30425 45.1987C7.41815 45.1433 7.53412 45.088 7.64919 45.033C7.64988 45.0327 7.65058 45.0324 7.65127 45.032C7.70788 45.005 7.76439 44.9779 7.82029 44.9511C7.99295 44.869 8.16409 44.7877 8.33924 44.7064C8.42955 44.6632 8.52394 44.62 8.61756 44.5767C8.66969 44.5525 8.72169 44.5283 8.77274 44.5044C8.80068 44.4916 8.82904 44.4788 8.85754 44.4659C9.51084 44.1646 10.1605 43.8716 10.8175 43.5858C11.472 43.3004 12.1288 43.0225 12.7846 42.7521C13.442 42.4814 14.0993 42.2184 14.7581 41.9621C18.9392 40.3346 23.1635 38.8866 27.4339 37.7483C28.0429 37.5854 28.6692 37.4276 29.2815 37.2789C29.9006 37.1291 30.5078 36.988 31.1306 36.8526C31.3197 36.811 31.5137 36.7697 31.7129 36.7282ZM24.6555 64.8843C25.6745 65.0377 26.3742 66.2681 27.3691 66.5285C28.6044 66.8518 30.1038 66.239 31.2972 66.7355C32.4834 67.2302 33.6558 67.8027 34.8091 68.4326C35.9637 69.0629 37.1013 69.7511 38.2312 70.4796C39.3584 71.2074 40.4779 71.9754 41.5901 72.765C42.3455 73.3013 43.0992 73.8482 43.8508 74.3989C44.1808 74.6404 44.5095 74.8823 44.8391 75.125C45.0848 75.3063 45.3306 75.4876 45.5763 75.6689C45.6104 75.6943 45.6306 75.7667 45.6316 75.8736C45.6326 75.9807 45.6145 76.1128 45.5801 76.2452C45.5456 76.3777 45.4969 76.5022 45.444 76.5949C45.3912 76.6873 45.3384 76.7399 45.2964 76.7449C44.9921 76.7797 44.6878 76.8144 44.3835 76.8492C44.0455 76.8877 43.708 76.9265 43.3703 76.9642C43.463 76.4081 43.5037 75.9787 43.4266 75.7643C43.3872 75.655 43.3047 75.5923 43.2103 75.6756C43.1255 75.7505 43.0374 75.9003 42.9536 76.0431C42.8659 76.1925 42.7827 76.3343 42.7127 76.3738C42.594 76.441 42.4438 76.6483 42.2861 76.8662C42.2287 76.9454 42.1703 77.0262 42.112 77.1021C41.7901 77.1365 41.4683 77.17 41.1469 77.2025C41.0486 77.1152 40.9567 77.0414 40.8625 77.0408C40.7781 77.0402 40.6757 77.1362 40.5664 77.2602C40.5167 77.2651 40.4669 77.2699 40.4172 77.2748C40.0965 77.3057 39.7761 77.3349 39.4559 77.3631C39.2649 77.1587 39.0618 76.9556 38.7662 76.8129C38.6388 76.7513 38.5266 76.6385 38.4188 76.5302C38.2595 76.3702 38.1096 76.2197 37.9342 76.2575C37.8169 76.2828 37.7277 76.1777 37.6387 76.0728C37.5194 75.9322 37.4004 75.7918 37.214 75.9667C37.0968 76.0767 36.979 76.2168 36.8698 76.3468C36.6961 76.5536 36.5443 76.7345 36.4517 76.7257C36.2777 76.709 36.0884 76.8433 35.9215 76.9619C35.7207 77.1045 35.5524 77.2241 35.4822 77.0299C35.4716 77.0005 35.4606 76.9622 35.4484 76.9187C35.3838 76.6894 35.2805 76.3226 34.9681 76.4284C34.8568 76.466 34.7255 76.6049 34.5967 76.7412C34.4093 76.9396 34.2274 77.1321 34.121 76.9978C34.1051 76.9777 34.1007 76.9096 34.0968 76.8475C34.0918 76.7684 34.0874 76.6995 34.0607 76.7515C33.9823 76.9043 33.8782 77.0686 33.765 77.2474C33.6818 77.3788 33.5936 77.518 33.5073 77.6659C33.1409 77.6669 32.7755 77.6642 32.4111 77.6568C32.2442 77.6535 32.0774 77.6492 31.9109 77.6439C31.8938 77.3789 31.8687 77.1376 31.825 76.9486C31.7679 76.7016 31.6379 76.5968 31.4705 76.4612C31.3474 76.3614 31.2039 76.2449 31.054 76.0435C30.7765 75.6708 30.3999 75.6404 30.1299 75.7316C30.0728 75.7508 30.0149 75.7722 29.9527 75.7957C29.7172 75.8847 29.423 75.9963 28.9007 76.0681C28.4067 76.136 28.0147 76.0851 27.7203 76.0469C27.57 76.0274 27.4452 76.0107 27.3451 76.0153C27.1738 76.0231 26.9677 76.0161 26.7609 76.009C26.4372 75.9977 26.1116 75.9861 25.9136 76.032C25.8432 76.0483 25.7676 76.0716 25.6862 76.0962C25.4605 76.1645 25.1879 76.2467 24.842 76.2454C24.4788 76.2439 24.2832 76.1298 24.0974 75.944C24.0219 75.8685 23.997 75.6409 23.9716 75.4059C23.9355 75.0724 23.8979 74.7243 23.7112 74.7767C23.6676 74.789 23.6144 74.8278 23.5587 74.8687C23.4563 74.9437 23.3456 75.025 23.2714 74.9575C23.2455 74.9339 23.2337 74.8708 23.2221 74.809C23.2094 74.7409 23.1968 74.6744 23.1661 74.6629C23.0511 74.6199 22.9325 74.604 22.8271 74.5901C22.6911 74.5721 22.5772 74.5569 22.5214 74.4899C22.422 74.3705 22.268 74.4143 22.1119 74.4591C21.9927 74.4933 21.8722 74.5282 21.7741 74.4905C21.4938 74.3825 21.0578 74.4289 20.5837 74.5719C20.4044 74.6259 20.3066 74.4631 20.1814 74.2542C20.1036 74.1242 20.0152 73.9759 19.8898 73.8516C19.8187 73.7812 19.7179 73.8774 19.6248 73.9663C19.5389 74.0482 19.4594 74.1239 19.4151 74.058C19.376 73.9997 19.3939 73.7986 19.411 73.6075C19.4299 73.3949 19.4477 73.1949 19.3846 73.2184C19.351 73.231 19.2914 73.3184 19.2205 73.4223C19.1925 73.4634 19.1627 73.5069 19.132 73.5496C19.143 73.5107 19.1524 73.4758 19.1592 73.4494C19.2079 73.2623 19.1789 73.1497 19.1505 73.0393C19.1391 72.9952 19.1277 72.9516 19.1215 72.9037C19.0987 72.7271 18.9837 72.6695 18.8887 72.6528C18.8485 72.6456 18.8279 72.5784 18.8038 72.4999C18.7825 72.4302 18.7584 72.3515 18.7155 72.2983C18.6911 72.268 18.6819 72.2077 18.6744 72.1575C18.669 72.1211 18.6644 72.09 18.6553 72.0798C18.6474 72.071 18.6258 72.1226 18.6015 72.1808C18.584 72.2226 18.565 72.2679 18.5487 72.2965C18.5098 72.3648 18.4786 72.3804 18.4668 72.3521C18.4614 72.3391 18.4603 72.3165 18.4592 72.2941C18.4579 72.2679 18.4567 72.2416 18.4486 72.2304C18.4113 72.179 18.3492 72.2282 18.2847 72.2792C18.2139 72.3354 18.14 72.3936 18.0929 72.3236C18.078 72.3015 18.0676 72.2571 18.0576 72.214C18.0471 72.1689 18.0368 72.1254 18.0223 72.1107C17.9633 72.0512 17.863 72.1679 17.7707 72.2752C17.7093 72.3466 17.6515 72.4138 17.6117 72.4223C17.5389 72.4378 17.4627 72.5894 17.4064 72.7013C17.3772 72.7593 17.3533 72.807 17.3381 72.8193C17.3289 72.8121 17.3197 72.8041 17.3109 72.7957C17.3046 72.7814 17.298 72.7667 17.2878 72.7682C17.287 72.7683 17.2862 72.7688 17.2854 72.7689C17.2379 72.7151 17.1956 72.6452 17.1537 72.5755C17.0595 72.419 16.9665 72.2642 16.8167 72.2989C16.7844 72.3064 16.7382 72.3652 16.6913 72.4249C16.6338 72.4981 16.5749 72.5729 16.5389 72.5571C16.453 72.5193 16.3909 72.3865 16.3297 72.2556C16.2378 72.0587 16.1479 71.8665 15.9823 72.0089C15.9277 72.0559 15.8641 72.1413 15.8002 72.2275C15.7646 72.2755 15.7288 72.324 15.6945 72.3655C15.722 72.2789 15.7459 72.1971 15.7681 72.1209C15.8141 71.9636 15.8534 71.8291 15.9044 71.7193C16.025 71.46 16.1788 71.0998 16.2436 70.8249C16.2611 70.7502 16.284 70.668 16.3071 70.5851C16.365 70.3774 16.4242 70.1652 16.4029 70.0568C16.3886 69.9837 16.3471 69.8137 16.2546 69.9601C16.2345 69.992 16.2098 70.0592 16.1824 70.1339C16.1331 70.268 16.0747 70.4268 16.0165 70.4522C16.0067 70.4565 15.9963 70.46 15.9858 70.463C15.9437 70.4749 15.8968 70.4879 15.8528 70.5946C15.8021 70.7175 15.7679 70.8645 15.7281 71.0358C15.6762 71.259 15.6146 71.5241 15.4943 71.8317C15.4705 71.8924 15.4506 71.9102 15.4356 71.9237C15.425 71.9332 15.4168 71.9409 15.4113 71.9596C15.405 71.9812 15.3957 72.0269 15.384 72.0848C15.3426 72.2891 15.2702 72.6459 15.1871 72.6402C15.1646 72.6387 15.1445 72.6156 15.1264 72.5947C15.0998 72.564 15.0777 72.5386 15.0591 72.5952C15.0521 72.6167 15.045 72.6402 15.0378 72.6645C15.0138 72.6509 14.9898 72.6373 14.9658 72.6236C14.9505 72.5464 14.9026 72.5402 14.8426 72.5328C14.8281 72.531 14.8128 72.5288 14.7971 72.5258C14.7499 72.4984 14.7027 72.4711 14.6555 72.4434C14.6227 72.4038 14.5921 72.3452 14.5663 72.2582C14.5146 72.0837 14.5002 71.8145 14.4861 71.5512C14.4802 71.4402 14.4743 71.3301 14.4658 71.2288C14.4815 71.2206 14.4965 71.2102 14.5101 71.1939C14.6037 71.0825 14.6929 70.8389 14.775 70.6146C14.8296 70.4654 14.8811 70.3247 14.9285 70.2376C15.0154 70.078 15.0629 69.8774 15.0981 69.7291C15.1164 69.6521 15.1314 69.5891 15.1467 69.5534C15.159 69.5247 15.1732 69.5134 15.1879 69.5017C15.2007 69.4915 15.2139 69.4808 15.2264 69.4584C15.3783 69.1861 15.3995 69.0106 15.4303 68.7552C15.4473 68.6144 15.4673 68.4491 15.5137 68.2299C15.5648 67.9983 15.5851 67.9319 15.6487 67.8509C15.6471 67.7295 15.6454 67.6081 15.6438 67.4868C15.6297 67.491 15.602 67.5594 15.5585 67.6737C15.4807 67.8779 15.3852 67.9351 15.3106 67.9798C15.2761 68.0005 15.246 68.0187 15.2242 68.0474C15.1083 68.2003 15.0671 68.4443 15.0308 68.6591C15.0109 68.7773 14.9924 68.8868 14.9638 68.9672C14.9515 69.0015 14.9469 69.0376 14.9421 69.0744C14.9383 69.1028 14.9346 69.1317 14.9273 69.1606C14.8739 69.37 14.7913 69.5142 14.7147 69.6482C14.6708 69.7249 14.6289 69.7986 14.5954 69.879C14.5852 69.9035 14.5756 69.9286 14.5663 69.9531C14.5529 69.9889 14.5399 70.0229 14.5261 70.0514C14.4947 70.1162 14.4547 70.1551 14.4108 70.1973C14.3884 70.219 14.3649 70.2416 14.3411 70.2692C14.3102 70.305 14.2815 70.3859 14.2514 70.4703C14.2301 70.5299 14.2081 70.5914 14.1842 70.6405C14.1409 70.7293 14.0939 70.7532 14.0503 70.7754C14.0313 70.785 14.0128 70.7947 13.9957 70.809C13.9887 70.8148 13.9825 70.8283 13.9769 70.8477C13.9017 70.8981 13.8288 70.9505 13.7576 71.002C13.4011 71.2599 13.0923 71.4836 12.7952 71.1862C12.739 71.13 12.6658 71.1193 12.5858 71.1318C12.3769 70.99 12.1686 70.8455 11.9611 70.6989C11.9645 70.4986 11.9499 70.3259 11.9162 70.1845C11.8529 69.9192 11.7384 69.8363 11.6034 69.7384C11.5035 69.666 11.3924 69.5854 11.2823 69.4168C11.0973 69.1337 10.897 68.8828 10.6416 68.7132C10.3872 68.5442 10.0858 68.3901 9.8661 68.3062C9.74631 68.2604 9.66052 68.0581 9.5805 67.8699C9.46795 67.605 9.36689 67.3677 9.19936 67.6303C9.14584 67.7143 9.07579 67.866 9.00768 68.0133C8.95918 68.1183 8.91162 68.2207 8.87159 68.2958C8.82683 68.2576 8.78194 68.2197 8.7372 68.1813C8.69576 67.9665 8.60745 67.7248 8.4153 67.9024C8.36926 67.8624 8.32316 67.8224 8.27899 67.7826C8.18197 67.698 8.08754 67.6134 7.99222 67.5281C7.96118 67.5 7.92978 67.4718 7.89832 67.4435C7.89803 67.4432 7.89774 67.4428 7.89745 67.4425C7.83413 67.3855 7.77031 67.3281 7.70778 67.2707C7.68098 67.2462 7.65418 67.2217 7.62738 67.1972C7.55926 67.135 7.49061 67.0725 7.42344 67.01C7.38792 66.9767 7.35195 66.9436 7.316 66.91C7.25768 66.8557 7.1989 66.8009 7.14053 66.7461C7.04613 66.6574 6.95243 66.5681 6.85864 66.4783C6.84333 66.4635 6.83435 66.4272 6.83419 66.3757C6.83407 66.3241 6.84265 66.2617 6.85887 66.1993C6.8751 66.1369 6.89807 66.0781 6.92328 66.0333C6.94843 65.9886 6.97371 65.962 6.99421 65.9568C7.11948 65.9257 7.24443 65.8952 7.36971 65.8653C7.44714 65.8468 7.52496 65.8281 7.60211 65.81C7.64968 65.7988 7.69702 65.788 7.74408 65.7769C7.8329 65.7561 7.92321 65.7358 8.01268 65.7158C8.0479 65.7079 8.08312 65.6999 8.11834 65.692C8.2008 65.6734 8.28439 65.6555 8.36738 65.6376C8.36788 65.6375 8.36838 65.6374 8.36888 65.6373C8.40971 65.6285 8.45049 65.6196 8.49085 65.6108C8.61523 65.5843 8.7385 65.5581 8.864 65.5332C8.92917 65.519 8.99659 65.5062 9.06365 65.4929C9.10098 65.4855 9.13827 65.4781 9.17492 65.4706C9.1949 65.4667 9.2151 65.463 9.2354 65.4593C9.70295 65.3678 10.1656 65.2831 10.6301 65.2072C11.093 65.131 11.5546 65.0625 12.0132 65.0007C12.4729 64.9392 12.9298 64.8847 13.3855 64.837C16.2771 64.5334 19.1332 64.4104 21.9116 64.5907C22.3081 64.616 22.7125 64.6509 23.106 64.6904C23.5037 64.7308 23.8919 64.7759 24.2869 64.8308C24.4069 64.8471 24.5297 64.865 24.6555 64.8843Z" fill="#3DE71B"/>
</svg>
