<svg width="281" height="86" viewBox="0 0 281 86" fill="none" xmlns="http://www.w3.org/2000/svg">
<g clip-path="url(#clip0_23_760)">
<path d="M105.516 40.2454C106.451 40.5389 107.356 40.8428 108.233 41.1568C109.069 41.4546 109.858 41.8713 110.575 42.394C111.255 42.8911 111.815 43.5333 112.215 44.2739C112.66 45.1546 112.873 46.1329 112.838 47.1181C112.862 48.2291 112.611 49.3289 112.105 50.3189C111.625 51.231 110.932 52.0146 110.085 52.6039C109.165 53.2417 108.135 53.7058 107.046 53.9732C105.806 54.2807 104.531 54.4287 103.254 54.4135C101.942 54.4202 100.636 54.2393 99.3766 53.8763C98.2106 53.5484 97.1222 52.9916 96.1746 52.2385C95.2462 51.4866 94.4936 50.5415 93.9693 49.4692C93.3902 48.2642 93.1049 46.9397 93.1355 45.6035H97.7091C97.7091 47.4674 98.2561 48.7882 99.3503 49.5661C100.567 50.3716 102.006 50.7751 103.465 50.7195C104.713 50.7836 105.955 50.4953 107.046 49.8875C107.482 49.6044 107.834 49.2103 108.067 48.746C108.3 48.2816 108.404 47.7638 108.369 47.2458C108.398 46.6523 108.207 46.0689 107.831 45.6079C107.398 45.1416 106.877 44.766 106.296 44.5029C105.509 44.1368 104.689 43.8422 103.848 43.6223C102.879 43.3523 101.785 43.003 100.567 42.5745C99.6327 42.2809 98.7619 41.9772 97.9566 41.6631C97.1933 41.3678 96.4848 40.9499 95.8573 40.4259C95.2647 39.9243 94.7881 39.3011 94.4587 38.5988C93.8298 37.2295 93.6982 35.6844 94.0859 34.2286C94.4737 32.7729 95.3572 31.4974 96.5851 30.621C97.4672 30.0114 98.4511 29.564 99.4911 29.3002C100.642 28.9974 101.829 28.8494 103.02 28.8599C104.282 28.8504 105.537 29.0497 106.733 29.4499C107.829 29.8161 108.843 30.3918 109.719 31.1449C110.554 31.8693 111.233 32.7562 111.713 33.7514C112.202 34.7921 112.45 35.9301 112.436 37.0799H107.937C107.937 35.6504 107.517 34.5498 106.676 33.7778C105.829 33.0073 104.603 32.6199 102.989 32.6199C101.847 32.5855 100.722 32.8921 99.7557 33.5004C99.3389 33.7714 99.0002 34.147 98.774 34.5898C98.5478 35.0326 98.4425 35.5269 98.4681 36.0232C98.4418 36.5603 98.5969 37.0907 98.9092 37.5289C99.2791 37.9743 99.7515 38.3247 100.285 38.5504C101.001 38.8769 101.738 39.1549 102.49 39.3825L105.516 40.2454Z" fill="white"/>
<path d="M122.249 42.8739C122.277 43.8694 122.45 44.8555 122.761 45.8017C123.05 46.6875 123.506 47.5096 124.106 48.2233C124.732 48.9447 125.515 49.5139 126.395 49.8875C127.488 50.3278 128.661 50.5377 129.839 50.5038C131.668 50.5038 133.059 50.1193 134.011 49.3504C134.915 48.6432 135.611 47.7064 136.027 46.6382H140.773C140.554 47.6842 140.154 48.684 139.591 49.5925C138.992 50.545 138.225 51.3817 137.329 52.0624C136.336 52.8101 135.227 53.3915 134.047 53.7839C132.692 54.2271 131.274 54.4443 129.848 54.4267C127.998 54.4671 126.16 54.1176 124.455 53.4008C122.993 52.7807 121.687 51.8455 120.63 50.6623C119.604 49.4801 118.835 48.0977 118.372 46.603C117.862 44.9972 117.607 43.3213 117.618 41.6367C117.603 39.903 117.876 38.1787 118.426 36.5339C118.923 35.0287 119.72 33.6392 120.767 32.4482C121.81 31.2873 123.096 30.3703 124.534 29.7625C126.162 29.0911 127.91 28.7614 129.672 28.7939C131.195 28.7816 132.707 29.0642 134.122 29.626C136.161 30.4348 137.908 31.84 139.132 33.6574C140.357 35.4748 141.003 37.6193 140.984 39.8095C140.984 40.1662 140.984 40.5977 140.958 41.0996C140.927 41.6896 140.864 42.2775 140.768 42.8607L122.249 42.8739ZM129.57 32.3998C127.453 32.3998 125.73 33 124.401 34.2005C123.072 35.4009 122.374 37.1048 122.306 39.3121H136.464C136.464 37.1635 135.808 35.4714 134.497 34.2357C133.164 32.9978 131.394 32.3376 129.575 32.3998H129.57Z" fill="white"/>
<path d="M164.933 38.3082C164.787 36.8763 164.15 35.5388 163.129 34.5218C162.106 33.5004 160.448 32.9897 158.155 32.9897C157.011 32.9649 155.877 33.2045 154.842 33.6897C153.916 34.1344 153.106 34.7869 152.474 35.5961C151.836 36.4245 151.353 37.3612 151.049 38.361C150.723 39.4238 150.56 40.5296 150.564 41.6411C150.552 42.7485 150.7 43.8519 151.005 44.9167C151.289 45.9165 151.774 46.8483 152.43 47.6552C153.093 48.4592 153.93 49.1034 154.878 49.5396C155.988 50.0282 157.193 50.2657 158.406 50.2352C160.465 50.2352 161.973 49.8052 162.931 48.9452C163.945 48.0178 164.661 46.8102 164.986 45.4759H169.671C169.499 46.7058 169.117 47.8972 168.541 48.998C167.969 50.0859 167.192 51.0531 166.252 51.8466C165.226 52.6945 164.048 53.3413 162.782 53.7531C161.269 54.2427 159.686 54.4792 158.097 54.4531C156.274 54.4963 154.465 54.1291 152.805 53.3788C151.355 52.7073 150.059 51.7457 148.997 50.5536C147.935 49.3616 147.129 47.9645 146.63 46.4489C145.589 43.346 145.589 39.989 146.63 36.8861C147.132 35.3801 147.917 33.9841 148.946 32.774C149.997 31.553 151.3 30.5724 152.765 29.8989C154.413 29.1586 156.206 28.7917 158.014 28.8247C159.754 28.7702 161.49 29.042 163.129 29.626C164.426 30.1066 165.615 30.8382 166.627 31.7789C167.53 32.6339 168.245 33.6669 168.727 34.8124C169.199 35.9239 169.496 37.1016 169.609 38.3038L164.933 38.3082Z" fill="white"/>
<path d="M198.25 29.4456V53.8412H193.566V49.4824C192.849 50.9876 191.695 52.2424 190.254 53.0839C188.647 54.0088 186.816 54.4734 184.961 54.4267C183.44 54.4655 181.928 54.1819 180.524 53.5946C179.353 53.0939 178.34 52.286 177.591 51.2568C176.907 50.326 176.42 49.2651 176.163 48.1396C175.868 46.7268 175.733 45.2854 175.761 43.8425V29.4456H180.44V42.3368C180.433 43.4022 180.542 44.4653 180.767 45.5068C180.949 46.4011 181.305 47.2508 181.817 48.0076C182.3 48.7064 182.947 49.2776 183.7 49.6718C184.593 50.1119 185.581 50.3237 186.575 50.2881C187.643 50.3138 188.702 50.0843 189.663 49.619C190.522 49.1875 191.268 48.5619 191.842 47.7918C192.429 46.9965 192.867 46.1015 193.134 45.1502C193.428 44.1191 193.576 43.0522 193.575 41.9802V29.4456H198.25Z" fill="white"/>
<path d="M221.767 33.7425C221.264 33.6368 220.858 33.5619 220.554 33.5267C220.187 33.4884 219.82 33.4707 219.451 33.4739C216.726 33.4739 214.689 34.3545 213.342 36.1156C211.996 37.8766 211.324 40.2248 211.327 43.16V53.841H206.643V29.4454H211.341V34.2268C211.999 32.6673 213.139 31.359 214.595 30.4932C216.044 29.5667 217.727 29.0719 219.447 29.0668C220.236 29.0424 221.023 29.171 221.762 29.4454L221.767 33.7425Z" fill="white"/>
<path d="M224.889 20.204C224.881 19.7076 224.972 19.2144 225.157 18.7534C225.342 18.2923 225.617 17.8725 225.965 17.5184C226.301 17.1531 226.71 16.8633 227.167 16.6682C227.623 16.4731 228.115 16.3772 228.612 16.3869C229.622 16.3983 230.587 16.8043 231.301 17.5178C232.015 18.2313 232.421 19.1956 232.431 20.204C232.441 20.6991 232.346 21.1907 232.152 21.6461C231.957 22.1016 231.667 22.5105 231.302 22.8457C230.947 23.1932 230.526 23.467 230.064 23.6514C229.603 23.8358 229.109 23.9271 228.612 23.92C228.122 23.9253 227.637 23.833 227.185 23.6486C226.731 23.4642 226.32 23.1913 225.974 22.846C225.628 22.5007 225.355 22.0899 225.17 21.6377C224.985 21.1856 224.893 20.7012 224.898 20.2128L224.889 20.204ZM226.288 29.4498H230.971V53.841H226.288V29.4498Z" fill="white"/>
<path d="M252.657 53.8409C252.19 53.9114 251.573 53.9818 250.801 54.0567C250.029 54.1315 249.248 54.1623 248.459 54.1623C247.63 54.1564 246.802 54.0843 245.985 53.9466C245.079 53.8019 244.222 53.4426 243.484 52.8987C242.625 52.233 241.956 51.3541 241.543 50.3496C241.023 49.1989 240.763 47.6228 240.763 45.621V33.3637H236.242V29.4453H240.763V21.2253H245.447V29.4453H251.797V33.3637H245.447V44.5599C245.42 45.5052 245.519 46.4498 245.742 47.3688C245.886 47.964 246.172 48.5154 246.576 48.9759C246.914 49.3389 247.356 49.5906 247.841 49.6979C248.381 49.8127 248.931 49.8674 249.482 49.8609H251.18C251.678 49.877 252.175 49.8221 252.657 49.6979V53.8409Z" fill="white"/>
<path d="M268.641 67.591C265.163 67.591 262.409 66.7104 260.38 64.9493C258.351 63.1882 257.302 60.5378 257.231 56.998H261.968C262.115 59.2169 262.771 60.8739 263.935 61.9686C265.1 63.0635 266.705 63.6094 268.751 63.6065C269.705 63.6168 270.656 63.4983 271.578 63.2542C272.381 63.0423 273.121 62.6372 273.731 62.0743C274.363 61.4543 274.834 60.6895 275.103 59.8465C275.454 58.7156 275.618 57.5347 275.588 56.3508V49.4825C274.88 50.977 273.746 52.2299 272.328 53.0839C270.725 54.0172 268.891 54.4825 267.035 54.4267C265.499 54.4746 263.969 54.2001 262.546 53.621C261.383 53.1166 260.371 52.3203 259.608 51.3096C258.923 50.3699 258.439 49.3 258.184 48.1661C257.885 46.6898 257.751 45.1853 257.782 43.6796V29.4456H262.462V42.2135C262.455 43.3036 262.554 44.3918 262.758 45.4627C262.925 46.3734 263.273 47.2416 263.781 48.0164C264.26 48.7291 264.918 49.3032 265.69 49.6806C266.637 50.1077 267.669 50.3097 268.707 50.2706C269.776 50.3028 270.836 50.0731 271.795 49.6013C272.638 49.1681 273.366 48.5421 273.92 47.7742C274.492 46.9735 274.92 46.0797 275.186 45.1325C275.48 44.1015 275.629 43.0346 275.627 41.9625V29.4456H280.306V56.3596C280.306 60.2663 279.32 63.1148 277.347 64.9053C275.374 66.6957 272.473 67.591 268.641 67.591Z" fill="white"/>
<path d="M26.8598 41.0732C26.31 41.0732 25.7827 40.8551 25.394 40.467C25.0053 40.079 24.7869 39.5527 24.7869 39.0038V29.3398C24.7869 28.791 25.0053 28.2646 25.394 27.8766C25.7827 27.4885 26.31 27.2705 26.8598 27.2705C27.4096 27.2705 27.9368 27.4885 28.3255 27.8766C28.7143 28.2646 28.9327 28.791 28.9327 29.3398V38.995C28.9345 39.2677 28.8821 39.5379 28.7786 39.7903C28.6752 40.0426 28.5227 40.272 28.33 40.4653C28.1373 40.6584 27.9082 40.8116 27.6558 40.9159C27.4034 41.0203 27.1329 41.0737 26.8598 41.0732Z" fill="#1A4687"/>
<path d="M26.8597 55.6022C24.2584 55.6011 21.7186 54.8118 19.5764 53.3384C17.4341 51.8652 15.7904 49.7775 14.8626 47.3514C13.9347 44.9254 13.7665 42.2754 14.3801 39.7518C14.9937 37.2282 16.3603 34.9501 18.2991 33.2186C18.7106 32.8674 19.2435 32.6908 19.7838 32.7267C20.3241 32.7627 20.8288 33.0082 21.1902 33.4108C21.5514 33.8135 21.7406 34.3413 21.717 34.8813C21.6935 35.4213 21.4593 35.9307 21.0644 36.3006C19.9835 37.2661 19.1617 38.4861 18.6737 39.8496C18.1857 41.2131 18.0471 42.6767 18.2705 44.1074C18.4938 45.538 19.0719 46.8902 19.9523 48.0408C20.8328 49.1915 21.9875 50.104 23.3114 50.6955C24.6353 51.2869 26.0864 51.5384 27.5325 51.4271C28.9786 51.3159 30.3739 50.8454 31.5914 50.0584C32.8089 49.2714 33.8099 48.193 34.5033 46.9213C35.1967 45.6496 35.5605 44.2249 35.5616 42.777C35.5678 41.6103 35.3363 40.4546 34.8814 39.3799C34.4265 38.3052 33.7576 37.3339 32.9153 36.5251C32.5298 36.1416 32.3109 35.6223 32.3057 35.0791C32.3005 34.5359 32.5095 34.0125 32.8877 33.6217C33.2658 33.231 33.7825 33.0044 34.3265 32.9908C34.8705 32.9771 35.3981 33.1776 35.7953 33.5489C37.6407 35.3238 38.912 37.6092 39.4457 40.1112C39.9795 42.6131 39.7512 45.2173 38.7904 47.5887C37.8295 49.9602 36.1799 51.9905 34.0538 53.4186C31.9277 54.8466 29.4223 55.6071 26.8597 55.6022Z" fill="#1A4687"/>
<path d="M43.0152 85.8799C66.7719 85.8799 86.0301 66.6551 86.0301 42.94C86.0301 19.2249 66.7719 0 43.0152 0C19.2585 0 0 19.2249 0 42.94C0 66.6551 19.2585 85.8799 43.0152 85.8799Z" fill="#4E80EE"/>
<path d="M43.0152 85.8799C66.7719 85.8799 86.0301 66.6551 86.0301 42.94C86.0301 19.2249 66.7719 0 43.0152 0C19.2585 0 0 19.2249 0 42.94C0 66.6551 19.2585 85.8799 43.0152 85.8799Z" fill="#56CCF2"/>
<path d="M26.8598 40.8179C26.31 40.8179 25.7827 40.5999 25.394 40.2118C25.0053 39.8237 24.7869 39.2974 24.7869 38.7486V29.0978C24.7869 28.5489 25.0053 28.0226 25.394 27.6346C25.7827 27.2465 26.31 27.0284 26.8598 27.0284C27.4096 27.0284 27.9368 27.2465 28.3255 27.6346C28.7143 28.0226 28.9327 28.5489 28.9327 29.0978V38.7486C28.9333 39.0205 28.8801 39.2898 28.7761 39.5412C28.6721 39.7925 28.5195 40.0208 28.3269 40.2131C28.1343 40.4054 27.9055 40.5577 27.6538 40.6615C27.402 40.7653 27.1322 40.8184 26.8598 40.8179Z" fill="#1B304F"/>
<path d="M26.8597 55.3467C24.2584 55.3456 21.7186 54.5562 19.5764 53.0829C17.4341 51.6097 15.7904 49.5219 14.8626 47.096C13.9347 44.6699 13.7665 42.0198 14.3801 39.4963C14.9937 36.9728 16.3603 34.6945 18.2991 32.9631C18.7106 32.6118 19.2435 32.4353 19.7838 32.4713C20.3241 32.5072 20.8288 32.7527 21.1902 33.1554C21.5514 33.558 21.7406 34.0857 21.717 34.6257C21.6935 35.1658 21.4593 35.6752 21.0644 36.045C19.7618 37.2079 18.8404 38.7353 18.4201 40.4285C17.9998 42.1217 18.1002 43.9019 18.708 45.5374C19.316 47.1727 20.4033 48.5874 21.8283 49.597C23.2533 50.6066 24.9499 51.1643 26.697 51.1975C28.444 51.2306 30.1607 50.7377 31.623 49.7829C33.0854 48.828 34.2258 47.4555 34.8955 45.8444C35.5652 44.2332 35.7332 42.4581 35.3777 40.7501C35.0221 39.0423 34.1594 37.4809 32.9021 36.2695C32.5328 35.8833 32.3274 35.3695 32.3289 34.8355C32.3303 34.3016 32.5384 33.7888 32.9098 33.4045C33.2811 33.0202 33.7869 32.794 34.3213 32.7733C34.8558 32.7526 35.3776 32.9389 35.7777 33.2933C37.6204 35.0675 38.89 37.3509 39.4233 39.8504C39.9567 42.35 39.7295 44.9517 38.7711 47.3215C37.8126 49.6912 36.1665 51.721 34.0441 53.1501C31.9217 54.5793 29.4199 55.3427 26.8597 55.3423V55.3467Z" fill="#1B304F"/>
<path d="M45.9482 29.8329H50.6233V34.13C51.3364 32.6307 52.4802 31.377 53.9091 30.5285C55.5279 29.6033 57.3726 29.1459 59.2369 29.2077C60.7498 29.1672 62.2537 29.4509 63.6474 30.0398C64.8182 30.5543 65.8241 31.3816 66.5539 32.4305C67.2379 33.3649 67.7324 34.4238 68.0093 35.5476C68.3272 36.9573 68.4753 38.3999 68.4504 39.8447V54.2461H63.7576V41.2756C63.7617 40.2194 63.6538 39.1656 63.4357 38.1321C63.2546 37.2293 62.898 36.3707 62.386 35.6049C61.8926 34.9034 61.2356 34.3322 60.4718 33.9407C59.5683 33.505 58.5727 33.2935 57.5698 33.3243C56.4985 33.2939 55.4368 33.5331 54.4825 34.0199C53.6382 34.4737 52.9036 35.1063 52.3302 35.8735C51.7437 36.6692 51.3059 37.5641 51.0378 38.5151C50.746 39.5286 50.5976 40.5777 50.5968 41.6323V54.2065H45.9482V29.8329Z" fill="#1B304F"/>
</g>
<defs>
<clipPath id="clip0_23_760">
<rect width="281" height="86" fill="white"/>
</clipPath>
</defs>
</svg>
