<svg width="273" height="66" viewBox="0 0 273 66" fill="none" xmlns="http://www.w3.org/2000/svg">
<g clip-path="url(#clip0_4359_11955)">
<path d="M57 21.3104H44.8C44.5 18.5104 44 17.2104 43.2 16.1104L43 15.9104L46.2 3.61035C48.0991 4.54299 49.8241 5.79447 51.3 7.31035L51.7 7.71035C54.8 11.3104 56.4 15.0004 57 21.3104Z" fill="#6CC04A"/>
<path d="M45.0998 3.11024L36.9998 12.7102C34.2541 12.2918 31.4759 12.1245 28.6998 12.2102H28.5998C19.8998 12.2102 16.5998 13.3102 14.8998 15.2102C14.5801 15.4975 14.3099 15.8353 14.0998 16.2102C13.3998 17.2102 12.8998 18.5102 12.4998 21.4102H0.299805C0.999805 15.0002 2.4998 11.3102 5.6998 7.71024L5.9998 7.31024C10.9998 2.00024 19.9998 0.110241 28.6998 0.000241237C34.1284 -0.0702952 39.5219 0.879507 44.5998 2.80024L45.0998 3.11024Z" fill="#2C82C9"/>
<path d="M51.3 54.1103C55.8 49.3103 57.2 43.1103 57.3 31.7103V30.0003C57.3 26.6003 57.2 23.7003 57 21.3003H44.8C45.0997 24.19 45.1999 27.0968 45.1 30.0003V30.7003C45.1 42.7003 44.2 44.3003 42.4 46.3003C40.6 48.3003 37.4 49.3003 28.7 49.3003H28.6C19.9 49.3003 16.6 48.2003 14.9 46.3003C13.2 44.4003 12.2 42.9003 12.2 30.8003V30.0003C12.2 27.1003 12.3 24.2003 12.5 21.3003H0.3C0.1 23.8103 0 26.6103 0 30.0003V31.5003C0.1 43.0003 1.5 49.3103 6 54.1103C11 59.4103 19.9 61.4103 28.6 61.4103C29.7 61.4103 30.8 61.4103 31.8 61.3103C32.1666 61.3372 32.516 61.4769 32.8 61.7103C39.4 68.2103 49.8 65.4103 53.3 63.6103C53.4004 63.5515 53.476 63.4583 53.5128 63.3479C53.5496 63.2375 53.545 63.1176 53.5 63.0103C53.386 62.8868 53.2505 62.7851 53.1 62.7103C51.8899 62.4468 50.7788 61.8472 49.8943 60.9804C49.0098 60.1136 48.3878 59.0148 48.1 57.8103C48.0165 57.5639 48.0101 57.298 48.0815 57.0479C48.153 56.7978 48.299 56.5754 48.5 56.4103C49.542 55.7864 50.4856 55.0113 51.3 54.1103Z" fill="#3E4543"/>
<path d="M115 20.5102H102.5V11.4102C102.504 11.3434 102.494 11.2764 102.471 11.2138C102.447 11.1511 102.411 11.0942 102.363 11.0468C102.316 10.9995 102.259 10.9628 102.196 10.9393C102.134 10.9157 102.067 10.9058 102 10.9102H94.7999C94.733 10.9058 94.6661 10.9157 94.6034 10.9393C94.5407 10.9628 94.4838 10.9995 94.4365 11.0468C94.3891 11.0942 94.3525 11.1511 94.3289 11.2138C94.3053 11.2764 94.2954 11.3434 94.2999 11.4102V43.5102C94.2964 45.5915 94.4974 47.6682 94.8999 49.7102C95.2226 51.2896 95.9852 52.7456 97.0998 53.9102C98.3393 55.0298 99.8605 55.7903 101.5 56.1102C103.73 56.6113 106.017 56.8131 108.3 56.7102H114.8C114.867 56.7146 114.934 56.7047 114.996 56.6812C115.059 56.6576 115.116 56.6209 115.163 56.5736C115.211 56.5262 115.247 56.4693 115.271 56.4067C115.294 56.344 115.304 56.277 115.3 56.2102V50.4102C115.304 50.3434 115.294 50.2764 115.271 50.2138C115.247 50.1511 115.211 50.0942 115.163 50.0468C115.116 49.9995 115.059 49.9628 114.996 49.9393C114.934 49.9157 114.867 49.9058 114.8 49.9102H108.2C107.159 49.9143 106.121 49.8138 105.1 49.6102C104.453 49.4948 103.859 49.1801 103.4 48.7102C102.991 48.1464 102.718 47.4964 102.6 46.8102C102.434 45.6178 102.367 44.4137 102.4 43.2102V27.4102H115C115.067 27.4146 115.134 27.4047 115.196 27.3812C115.259 27.3576 115.316 27.3209 115.363 27.2736C115.411 27.2262 115.447 27.1693 115.471 27.1067C115.494 27.044 115.504 26.977 115.5 26.9102V21.0002C115.5 20.6002 115.3 20.4002 115 20.5002V20.5102Z" fill="#3E4543"/>
<path d="M139.2 20.3101H131.2C129.317 20.3118 127.44 20.5129 125.6 20.9101C124.01 21.2643 122.512 21.9454 121.2 22.9101C119.97 23.8882 119.007 25.1608 118.4 26.6101C117.722 28.329 117.383 30.1625 117.4 32.0101V56.1101C117.396 56.1769 117.405 56.2438 117.429 56.3065C117.453 56.3692 117.489 56.4261 117.537 56.4734C117.584 56.5208 117.641 56.5574 117.704 56.581C117.766 56.6046 117.833 56.6145 117.9 56.6101H125.1C125.167 56.6145 125.234 56.6046 125.296 56.581C125.359 56.5574 125.416 56.5208 125.463 56.4734C125.511 56.4261 125.547 56.3692 125.571 56.3065C125.594 56.2438 125.604 56.1769 125.6 56.1101V33.6101C125.617 32.6406 125.684 31.6727 125.8 30.7101C125.871 29.981 126.149 29.2873 126.6 28.7101C127.063 28.135 127.691 27.7161 128.4 27.5101C129.57 27.18 130.786 27.0448 132 27.1101H139.3C139.367 27.1145 139.434 27.1046 139.496 27.081C139.559 27.0574 139.616 27.0208 139.663 26.9734C139.711 26.9261 139.747 26.8692 139.771 26.8065C139.794 26.7438 139.804 26.6769 139.8 26.6101V20.7101C139.748 20.5938 139.663 20.4947 139.557 20.424C139.451 20.3532 139.327 20.3138 139.2 20.3101Z" fill="#3E4543"/>
<path d="M169.9 23.3102C168.575 21.9259 166.925 20.8946 165.1 20.3102C162.651 19.4985 160.078 19.1261 157.5 19.2102C154.716 19.1029 151.936 19.5097 149.3 20.4102C147.352 21.1131 145.627 22.321 144.3 23.9102C143.031 25.5124 142.172 27.4005 141.8 29.4102C141.315 31.7452 141.08 34.1253 141.1 36.5102V40.3102C141.101 42.5569 141.302 44.799 141.7 47.0102C142.095 48.9521 142.953 50.7701 144.2 52.3102C145.538 53.8415 147.266 54.9819 149.2 55.6102C151.792 56.4064 154.488 56.8109 157.2 56.8102L170.1 56.7102C170.167 56.7146 170.234 56.7047 170.296 56.6811C170.359 56.6575 170.416 56.6209 170.463 56.5735C170.51 56.5262 170.547 56.4693 170.571 56.4066C170.594 56.3439 170.604 56.277 170.6 56.2102V51.2102C170.59 50.8155 170.428 50.4399 170.149 50.1607C169.87 49.8816 169.494 49.7203 169.1 49.7102C167.3 49.7102 158.3 49.8102 157.2 49.8102C155.756 49.8259 154.315 49.6918 152.9 49.4102C152.035 49.237 151.237 48.8207 150.6 48.2102C150.004 47.4857 149.593 46.628 149.4 45.7102C149.201 44.5205 149.1 43.3164 149.1 42.1102C149.085 41.9692 149.12 41.8275 149.2 41.7102C149.3 41.6102 149.4 41.6102 149.5 41.5102H167.3C168.07 41.4976 168.839 41.4307 169.6 41.3102C170.32 41.1297 170.956 40.7058 171.4 40.1102C171.917 39.3997 172.259 38.5775 172.4 37.7102C172.599 36.3861 172.699 35.0491 172.7 33.7102V32.7102C172.704 31.0253 172.502 29.3463 172.1 27.7102C171.802 26.0635 171.038 24.5366 169.9 23.3102ZM149.2 34.6102C149.2 33.238 149.3 31.8677 149.5 30.5102C149.626 29.4686 150.003 28.4733 150.6 27.6102C151.194 26.9066 152.002 26.4152 152.9 26.2102C154.282 25.9285 155.69 25.7944 157.1 25.8102C158.477 25.7945 159.852 25.9286 161.2 26.2102C162.087 26.4039 162.912 26.8164 163.6 27.4102C164.208 28.0088 164.626 28.7744 164.8 29.6102C165.086 30.8221 165.221 32.065 165.2 33.3102V35.0002H149.7C149.549 34.9751 149.41 34.9054 149.3 34.8002C149.2 34.8002 149.2 34.7002 149.2 34.6002V34.6102Z" fill="#3E4543"/>
<path d="M202.5 23.3101C200 21.3101 195.9 20.3101 190.3 20.3101C188.7 20.3101 182.2 20.4101 179.6 20.4101C179.409 20.4165 179.222 20.4604 179.049 20.5393C178.875 20.6182 178.719 20.7306 178.589 20.8699C178.459 21.0092 178.358 21.1728 178.291 21.3512C178.224 21.5297 178.193 21.7196 178.2 21.9101V25.9101C178.193 26.1005 178.224 26.2904 178.291 26.4689C178.358 26.6474 178.459 26.8109 178.589 26.9503C178.719 27.0896 178.875 27.2019 179.049 27.2808C179.222 27.3597 179.409 27.4036 179.6 27.4101C182.2 27.4101 188.6 27.3101 190.3 27.3101C191.843 27.2898 193.384 27.4238 194.9 27.7101C195.787 27.9038 196.612 28.3163 197.3 28.9101C197.819 29.3858 198.17 30.0175 198.3 30.7101C198.466 31.6673 198.533 32.6391 198.5 33.6101V34.0001C198.504 34.0669 198.494 34.1338 198.471 34.1965C198.447 34.2592 198.411 34.3161 198.363 34.3634C198.316 34.4108 198.259 34.4474 198.196 34.471C198.134 34.4946 198.067 34.5045 198 34.5001H197.8C197.116 34.222 196.414 33.9881 195.7 33.8001C193.568 33.3151 191.386 33.0802 189.2 33.1001C184.3 33.1001 180.7 34.0001 178.4 35.6001C176.1 37.2001 174.8 40.2001 174.8 44.2001V45.7001C174.8 49.3001 175.9 52.1001 178.1 53.9001C180.3 55.7001 183.8 56.6001 188.7 56.6001H198.9C201.7 56.6001 203.6 56.1001 204.7 55.2001C205.8 54.3001 206.4 52.5001 206.4 50.2001V32.3101C206.4 28.3101 205.1 25.3101 202.5 23.3101ZM198.6 49.9101H188.7C186.3 49.9101 184.6 49.5101 183.8 48.8101C183.351 48.4128 183.001 47.9173 182.775 47.3623C182.55 46.8072 182.455 46.2075 182.5 45.6101V44.2101C182.494 43.4662 182.595 42.7253 182.8 42.0101C182.982 41.4788 183.333 41.022 183.8 40.7101C184.442 40.3293 185.158 40.0906 185.9 40.0101C187.092 39.8438 188.296 39.7769 189.5 39.8101H191.1C192.472 39.8105 193.842 39.9107 195.2 40.1101C195.98 40.2255 196.728 40.4976 197.4 40.9101C197.839 41.2282 198.157 41.6868 198.3 42.2101C198.515 42.8879 198.583 43.6038 198.5 44.3101L198.6 49.9101Z" fill="#3E4543"/>
<path d="M256.2 22.0004C253.7 20.2004 250 19.3004 245.3 19.3004C243.052 19.2669 240.816 19.6395 238.7 20.4004C237.32 20.8523 236.056 21.6035 235 22.6004C234.955 22.6483 234.901 22.6864 234.841 22.7124C234.78 22.7385 234.715 22.7519 234.65 22.7519C234.584 22.7519 234.519 22.7385 234.459 22.7124C234.399 22.6864 234.345 22.6483 234.3 22.6004C233.254 21.5896 231.987 20.8363 230.6 20.4004C228.474 19.6793 226.245 19.3078 224 19.3004C219.2 19.3004 215.6 20.2004 213.1 22.0004C210.6 23.8004 209.3 26.9004 209.3 31.3004V56.2004C209.295 56.2672 209.305 56.3342 209.329 56.3969C209.352 56.4595 209.389 56.5164 209.436 56.5638C209.484 56.6111 209.541 56.6478 209.603 56.6714C209.666 56.6949 209.733 56.7048 209.8 56.7004H217C217.067 56.7048 217.134 56.6949 217.196 56.6714C217.259 56.6478 217.316 56.6111 217.363 56.5638C217.411 56.5164 217.447 56.4595 217.471 56.3969C217.494 56.3342 217.504 56.2672 217.5 56.2004V32.7104C217.513 31.7408 217.58 30.7727 217.7 29.8104C217.771 29.0813 218.049 28.3877 218.5 27.8104C218.983 27.2107 219.651 26.7886 220.4 26.6104C222.864 26.0104 225.436 26.0104 227.9 26.6104C228.608 26.7805 229.243 27.1735 229.711 27.7316C230.179 28.2897 230.456 28.9834 230.5 29.7104C230.6 30.7104 230.7 31.7104 230.7 32.6104V56.1104C230.695 56.1772 230.705 56.2442 230.729 56.3069C230.752 56.3695 230.789 56.4264 230.836 56.4738C230.884 56.5211 230.941 56.5578 231.003 56.5814C231.066 56.6049 231.133 56.6148 231.2 56.6104H238.4C238.467 56.6148 238.534 56.6049 238.596 56.5814C238.659 56.5578 238.716 56.5211 238.763 56.4738C238.811 56.4264 238.847 56.3695 238.871 56.3069C238.894 56.2442 238.904 56.1772 238.9 56.1104V31.8104C238.917 30.9739 238.984 30.139 239.1 29.3104C239.215 28.6638 239.53 28.0694 240 27.6104C240.54 27.1236 241.193 26.7798 241.9 26.6104C243.046 26.335 244.221 26.2007 245.4 26.2104C246.678 26.195 247.953 26.3292 249.2 26.6104C249.938 26.8137 250.599 27.2313 251.1 27.8104C251.508 28.3742 251.782 29.0242 251.9 29.7104C252 30.7104 252.1 31.7104 252.1 32.6104V56.0004C252.095 56.0672 252.105 56.1342 252.129 56.1969C252.152 56.2595 252.189 56.3164 252.236 56.3638C252.284 56.4111 252.341 56.4478 252.403 56.4714C252.466 56.4949 252.533 56.5048 252.6 56.5004H259.8C259.867 56.5048 259.934 56.4949 259.996 56.4714C260.059 56.4478 260.116 56.4111 260.163 56.3638C260.211 56.3164 260.247 56.2595 260.271 56.1969C260.294 56.1342 260.304 56.0672 260.3 56.0004V31.3104C260 27.0004 258.7 23.9104 256.2 22.0004Z" fill="#3E4543"/>
<path d="M92.0998 41.8101C91.8045 40.578 91.2384 39.4272 90.4428 38.4412C89.6471 37.4553 88.6417 36.6589 87.4998 36.1101C85.8727 35.3284 84.1034 34.886 82.2998 34.8101L74.3998 34.0001C73.5429 33.9879 72.6955 33.8184 71.8998 33.5001C71.419 33.3683 70.9745 33.1289 70.5998 32.8001C70.4544 32.6971 70.334 32.5627 70.2474 32.407C70.1609 32.2512 70.1104 32.078 70.0998 31.9001C69.9842 31.4079 69.9172 30.9054 69.8998 30.4001C69.8445 29.9087 69.9167 29.4114 70.1094 28.9561C70.302 28.5007 70.6087 28.1026 70.9998 27.8001C71.6998 27.3001 73.0998 27.1001 75.5998 27.1001H89.1998C89.3589 27.1057 89.5174 27.0785 89.6656 27.0201C89.8137 26.9618 89.9482 26.8736 90.0608 26.7611C90.1733 26.6485 90.2615 26.514 90.3198 26.3658C90.3782 26.2177 90.4054 26.0592 90.3998 25.9001V21.4001C90.4009 21.0984 90.2882 20.8074 90.0844 20.5851C89.8806 20.3627 89.6004 20.2252 89.2998 20.2001C86.7998 20.1001 78.6998 20.1001 76.3998 20.1001C71.3998 20.1001 67.7998 21.0001 65.5998 22.8001C64.6209 23.5659 63.8191 24.5343 63.2495 25.639C62.6799 26.7437 62.3559 27.9585 62.2998 29.2001C62.1996 30.1976 62.1996 31.2026 62.2998 32.2001C62.3693 33.1154 62.537 34.0206 62.7998 34.9001C63.1678 36.0003 63.7451 37.019 64.4998 37.9001C65.3418 38.8276 66.3621 39.5758 67.4998 40.1001C68.9253 40.7231 70.4477 41.0953 71.9998 41.2001L80.1998 42.0001C81.0244 42.0116 81.8392 42.1813 82.5998 42.5001C83.0863 42.6688 83.53 42.9418 83.8998 43.3001C84.1915 43.569 84.3998 43.9161 84.4998 44.3001C84.5828 44.7955 84.6163 45.298 84.5998 45.8001C84.5998 47.3001 84.1998 48.4001 83.3998 48.9001C82.5998 49.4001 80.7998 49.7001 78.1998 49.7001H59.2998V56.6001L77.7998 56.7001C82.6998 56.7001 86.3998 55.8001 88.7998 53.9001C90.0119 52.9602 90.9806 51.743 91.6245 50.3509C92.2684 48.9588 92.5685 47.4324 92.4998 45.9001V44.9001C92.3998 43.9101 92.2998 42.8101 92.0998 41.8101Z" fill="#3E4543"/>
<path d="M268.4 47.9102C269.174 47.9075 269.934 48.1149 270.6 48.5102C271.294 48.8541 271.856 49.4162 272.2 50.1102C272.593 50.7767 272.801 51.5364 272.801 52.3102C272.801 53.084 272.593 53.8437 272.2 54.5102C271.856 55.2042 271.294 55.7663 270.6 56.1102C269.934 56.5033 269.174 56.7107 268.4 56.7107C267.626 56.7107 266.867 56.5033 266.2 56.1102C265.506 55.7663 264.944 55.2042 264.6 54.5102C264.207 53.8437 264 53.084 264 52.3102C264 51.5364 264.207 50.7767 264.6 50.1102C264.982 49.4096 265.578 48.849 266.3 48.5102C266.93 48.1163 267.658 47.9083 268.4 47.9102ZM268.4 48.6102C267.767 48.6219 267.148 48.7939 266.6 49.1102C265.995 49.4148 265.505 49.9056 265.2 50.5102C264.857 51.0661 264.675 51.7067 264.675 52.3602C264.675 53.0137 264.857 53.6542 265.2 54.2102C265.505 54.8148 265.995 55.3055 266.6 55.6102C267.156 55.9536 267.797 56.1355 268.45 56.1355C269.104 56.1355 269.744 55.9536 270.3 55.6102C270.905 55.3055 271.395 54.8148 271.7 54.2102C272.044 53.6542 272.225 53.0137 272.225 52.3602C272.225 51.7067 272.044 51.0661 271.7 50.5102C271.395 49.9056 270.905 49.4148 270.3 49.1102C269.699 48.8389 269.057 48.6699 268.4 48.6102ZM266.5 54.8102V50.1102H268.1C268.503 50.0937 268.906 50.1273 269.3 50.2102C269.5 50.3102 269.8 50.4102 269.9 50.7102C270.025 50.9227 270.094 51.1636 270.1 51.4102C270.109 51.5811 270.077 51.7516 270.008 51.9079C269.938 52.0643 269.833 52.2021 269.7 52.3102C269.572 52.4455 269.417 52.5514 269.244 52.6205C269.071 52.6896 268.886 52.7202 268.7 52.7102C268.8 52.8102 269 52.8102 269.1 52.9102C269.364 53.1851 269.599 53.4867 269.8 53.8102L270.4 54.7102H269.5L269.1 53.9102C268.891 53.5046 268.622 53.1336 268.3 52.8102C268.118 52.6993 267.913 52.6309 267.7 52.6102H267.2V54.6102L266.5 54.8102ZM267.3 52.1102H268.2C268.514 52.1403 268.829 52.0703 269.1 51.9102C269.167 51.8585 269.223 51.7939 269.264 51.7202C269.305 51.6466 269.331 51.5653 269.341 51.4814C269.35 51.3974 269.343 51.3124 269.318 51.2315C269.294 51.1505 269.254 51.0753 269.2 51.0102C269.1 50.9102 269 50.8102 268.9 50.8102C268.642 50.7279 268.371 50.6939 268.1 50.7102H267.2L267.3 52.1102Z" fill="#3E4543"/>
</g>
<defs>
<clipPath id="clip0_4359_11955">
<rect width="272.8" height="65.78" fill="white"/>
</clipPath>
</defs>
</svg>
