<svg width="176" height="44" viewBox="0 0 176 44" fill="none" xmlns="http://www.w3.org/2000/svg">
<path fill-rule="evenodd" clip-rule="evenodd" d="M25.3695 15.3162H32.3386C31.8338 13.5313 30.4867 12.7052 28.938 12.7052C27.423 12.7052 25.8742 13.6306 25.3695 15.3162ZM37.6593 18.5543H25.2684C25.7059 20.5371 27.0862 21.7591 28.9048 21.7591C30.1507 21.7591 31.5984 21.4622 32.5074 19.8429L37.2886 20.8012C35.8407 24.3043 32.7769 25.9891 28.9048 25.9891C24.0225 25.9891 19.9824 22.4536 19.9824 17.1995C19.9824 11.9784 24.0225 8.40918 28.9381 8.40918C33.7192 8.40918 37.5576 11.7802 37.6593 17.1995V18.5543Z" fill="white"/>
<path fill-rule="evenodd" clip-rule="evenodd" d="M50.434 18.455L55.337 19.5125C54.5027 23.4448 50.9675 25.9891 46.7986 25.9891C41.7958 25.9891 37.6602 22.4536 37.6602 17.1995C37.6602 11.9784 41.7958 8.40918 46.7986 8.40918C50.8673 8.40918 54.4028 10.8875 55.337 14.7873L50.3343 15.9767C49.8672 13.961 48.4998 13.0357 46.7986 13.0357C44.3968 13.0357 42.796 14.7873 42.796 17.1995C42.796 19.6446 44.3968 21.3632 46.7986 21.3632C48.4998 21.3632 49.8672 20.4705 50.434 18.455Z" fill="white"/>
<path fill-rule="evenodd" clip-rule="evenodd" d="M84.999 17.1824C84.999 14.59 83.1129 12.8623 81.1314 12.8623C79.0534 12.8623 77.1674 14.59 77.1674 17.1824C77.1674 19.8075 79.0534 21.5025 81.1314 21.5025C83.1129 21.5025 84.999 19.8075 84.999 17.1824ZM89.921 17.1827C89.921 22.4665 85.8936 25.9891 81.131 25.9891C76.2718 25.9891 72.2441 22.4665 72.2441 17.1827C72.2441 11.9321 76.2718 8.40918 81.131 8.40918C85.8936 8.40918 89.921 11.9321 89.921 17.1827Z" fill="white"/>
<path fill-rule="evenodd" clip-rule="evenodd" d="M123.213 17.1824C123.213 14.59 121.245 12.8623 119.177 12.8623C117.009 12.8623 115.041 14.59 115.041 17.1824C115.041 19.8075 117.009 21.5025 119.177 21.5025C121.245 21.5025 123.213 19.8075 123.213 17.1824ZM128.35 17.1827C128.35 22.4665 124.146 25.9891 119.177 25.9891C114.107 25.9891 109.904 22.4665 109.904 17.1827C109.904 11.9321 114.107 8.40918 119.177 8.40918C124.146 8.40918 128.35 11.9321 128.35 17.1827Z" fill="white"/>
<path fill-rule="evenodd" clip-rule="evenodd" d="M139.427 18.951V18.587H135.811C134.496 18.587 133.674 19.2811 133.674 20.3058C133.674 21.363 134.595 22.0241 135.975 22.0241C137.784 22.0241 139.427 20.8012 139.427 18.951ZM144.489 14.9851V25.4939H139.427V24.2711C138.277 25.2625 136.699 25.9891 134.497 25.9891C130.814 25.9891 128.35 23.8417 128.35 20.5699C128.35 17.3315 130.814 15.2165 135.22 15.2165H139.427V14.8859C139.427 13.4985 138.474 12.5729 137.093 12.5729C135.516 12.5729 134.595 13.201 134.333 14.6553L129.369 13.6304C130.092 10.4252 132.985 8.40918 136.928 8.40918C141.564 8.40918 144.489 10.7553 144.489 14.9851Z" fill="white"/>
<path fill-rule="evenodd" clip-rule="evenodd" d="M157.555 8.54132L157.321 13.8272H156.355C152.622 13.8272 150.59 15.7434 150.59 20.0381V25.2247H145.258V8.64051H150.59V11.8119C151.789 9.82987 153.622 8.40918 156.355 8.40918C156.822 8.40918 157.154 8.44205 157.555 8.54132Z" fill="white"/>
<path fill-rule="evenodd" clip-rule="evenodd" d="M9.97227 21.2602C7.69358 21.2602 6.03291 19.5729 6.03291 17.0415C6.03291 14.5428 7.69358 12.8228 9.97227 12.8228C12.0882 12.8228 13.9765 14.5428 13.9765 17.0415C13.9765 19.5729 12.0882 21.2602 9.97227 21.2602ZM19.1923 23.6978H19.1854V8.896H13.9764V10.1938C12.7066 9.05785 11.0141 8.40918 8.8982 8.40918C4.56825 8.40918 0.921161 11.9141 0.921161 17.0416C0.921161 22.2012 4.56825 25.6734 8.8982 25.6734C11.0084 25.6734 12.6976 25.0276 13.9662 23.8978V33.994C13.9662 35.024 13.2118 38.3636 9.60842 38.3636C5.41067 38.3636 5.22541 34.2379 5.22207 33.994C5.19453 31.9259 6.1018 31.8972 6.52328 31.9256C6.77621 31.9426 7.04819 32.0539 7.27204 32.3291C7.39195 32.4763 7.53758 32.7344 7.42308 33.2771C7.12589 34.6837 8.02905 36.0641 9.4404 36.3601C10.8509 36.6561 12.2363 35.7564 12.5332 34.3495C12.9462 32.3943 12.518 30.5118 11.3275 29.0493C10.158 27.6128 8.31697 26.7202 6.52328 26.7202C2.62146 26.7202 0 29.6434 0 33.994C0 37.9696 2.98091 43.569 9.60842 43.569C16.1613 43.569 19.214 37.8551 19.214 33.994C19.214 31.5437 19.1923 23.6978 19.1923 23.6978Z" fill="white"/>
<path fill-rule="evenodd" clip-rule="evenodd" d="M170.739 17.1592C170.739 14.6035 168.831 12.8443 166.694 12.8443C164.392 12.8443 162.716 14.6035 162.716 17.1592C162.716 19.7482 164.392 21.4741 166.694 21.4741C168.831 21.4741 170.739 19.7482 170.739 17.1592ZM176 25.49H170.739V24.1629C169.457 25.3242 167.746 25.9877 165.61 25.9877C161.237 25.9877 157.555 22.4364 157.555 17.1589C157.555 11.9146 161.237 8.32948 165.61 8.32948C167.746 8.32948 169.457 8.99318 170.739 10.1551V0H176V25.49Z" fill="white"/>
<path fill-rule="evenodd" clip-rule="evenodd" d="M103.974 17.1531C103.974 14.5958 102.297 12.8354 99.9965 12.8354C97.8591 12.8354 95.9518 14.5958 95.9518 17.1531C95.9518 19.7438 97.8591 21.4709 99.9965 21.4709C102.297 21.4709 103.974 19.7438 103.974 17.1531ZM109.137 17.1533C109.137 22.4341 105.454 25.9877 101.081 25.9877C98.9448 25.9877 97.2346 25.3238 95.9518 24.1617V25.4898H90.6914V0H95.9518V10.1449C97.2346 8.98218 98.9448 8.31807 101.081 8.31807C105.454 8.31807 109.137 11.9055 109.137 17.1533Z" fill="white"/>
<path fill-rule="evenodd" clip-rule="evenodd" d="M68.6436 25.2234L64.1024 19.6001L61.5274 22.4281V25.2234H56.1055V0H61.5274V15.3249L67.6607 8.71473H73.9974L67.7288 15.6207L75.3194 25.2234H68.6436Z" fill="white"/>
</svg>
